<svg xmlns="http://www.w3.org/2000/svg" xmlns:xlink="http://www.w3.org/1999/xlink" width="201" height="161" fill="none"><g filter="url(#a)"><g clip-path="url(#b)"><rect width="118.412" height="256.255" x="41.746" y=".119" fill="#fff" rx="9.111"/><g clip-path="url(#c)"><rect width="14.42" height="14.42" x="48.956" y="24.393" fill="#6A6A6A" rx="7.21"/><path fill="url(#d)" d="M48.956 20.789h14.42v21.627h-14.42z"/></g><path fill="#131313" d="M66.668 25.637h.721v1.35h1.336v-1.35h.721V29h-.72v-1.389h-1.337v1.39h-.72v-3.365Zm3.5 1.466c.106-.192.25-.337.438-.442.188-.106.404-.159.654-.159s.466.053.658.149.341.236.447.413a1.247 1.247 0 0 1 .15.856H70.72v.02a.645.645 0 0 0 .173.422c.097.106.236.154.409.154.135 0 .25-.029.341-.086a.424.424 0 0 0 .183-.265h.668a1.038 1.038 0 0 1-.187.442 1.02 1.02 0 0 1-.395.313c-.163.077-.35.11-.562.11-.279 0-.514-.048-.716-.154a1.042 1.042 0 0 1-.462-.437 1.36 1.36 0 0 1-.158-.668c0-.255.048-.476.154-.668Zm1.688.375a.536.536 0 0 0-.188-.346.582.582 0 0 0-.38-.125.556.556 0 0 0-.374.13.516.516 0 0 0-.178.34h1.12Zm1.192-1.841h.678V29h-.678v-3.364Zm1.294 0h.678V29h-.678v-3.364Zm1.814 3.24a1.107 1.107 0 0 1-.457-.447 1.355 1.355 0 0 1-.159-.664c0-.25.053-.47.159-.663.106-.192.26-.337.457-.442.197-.106.427-.159.687-.159.26 0 .485.053.682.159.197.105.351.25.457.442.106.192.163.413.163.663 0 .255-.057.476-.163.668-.106.193-.26.337-.457.442a1.416 1.416 0 0 1-.682.154c-.26 0-.49-.048-.687-.154Zm1.134-.596a.77.77 0 0 0 .168-.515.779.779 0 0 0-.168-.514.559.559 0 0 0-.447-.197.559.559 0 0 0-.447.197.777.777 0 0 0-.163.514c0 .212.052.385.163.515.11.134.26.197.447.197a.544.544 0 0 0 .447-.198Zm2.762-2.644h1.168c.337 0 .63.072.89.216.259.144.456.341.595.596.14.255.212.543.212.87 0 .327-.072.62-.212.875s-.336.452-.596.596a1.79 1.79 0 0 1-.889.212h-1.168v-3.365ZM81.22 28.4c.303 0 .538-.096.707-.294.168-.197.254-.461.254-.788s-.086-.586-.254-.783c-.169-.197-.404-.298-.707-.298h-.447V28.4h.447Zm4.665.029v.572h-.346c-.313 0-.467-.135-.457-.404a.92.92 0 0 1-.332.322.942.942 0 0 1-.475.11c-.28 0-.5-.062-.669-.187-.168-.125-.25-.308-.25-.538 0-.26.097-.462.289-.606.192-.144.476-.216.846-.216h.49v-.12a.326.326 0 0 0-.125-.265.529.529 0 0 0-.336-.1.542.542 0 0 0-.308.08.324.324 0 0 0-.144.222h-.654a.754.754 0 0 1 .337-.587c.201-.139.466-.211.802-.211.346 0 .616.077.808.23.192.155.288.38.288.669v.87c0 .062.01.106.039.125.024.024.062.034.12.034h.077Zm-.904-.496h-.495a.545.545 0 0 0-.332.087.277.277 0 0 0-.115.235c0 .087.029.16.096.207a.417.417 0 0 0 .27.077.579.579 0 0 0 .418-.149c.1-.1.153-.235.158-.408v-.049Zm3.44-1.163c.182.183.278.476.278.89V29h-.677V27.7c0-.423-.169-.64-.5-.64a.503.503 0 0 0-.409.178c-.096.12-.144.289-.144.5v1.265h-.678V26.53h.591l.063.308a.865.865 0 0 1 .312-.246c.12-.057.27-.091.452-.091.288 0 .524.091.711.27Zm1.489-1.158a.356.356 0 0 1 .115.269.36.36 0 0 1-.115.274.373.373 0 0 1-.279.11.359.359 0 0 1-.279-.11.356.356 0 0 1-.11-.274c0-.106.033-.197.11-.27a.376.376 0 0 1 .279-.11c.11 0 .202.039.279.11Zm-.86 3.778c.081 0 .144-.02.182-.063.038-.043.063-.115.063-.211V26.53h.677v2.682c0 .235-.062.418-.182.553-.125.134-.298.197-.53.197h-.446v-.572h.235Zm3.865-2.86V29h-.601l-.063-.298a.907.907 0 0 1-.303.24.948.948 0 0 1-.423.087c-.288 0-.524-.086-.706-.264-.183-.178-.274-.476-.274-.894V26.53h.678v1.26c0 .225.038.393.115.509.077.115.202.168.365.168a.468.468 0 0 0 .394-.188c.092-.125.14-.302.14-.533V26.53h.678Zm4.234.235c.164.178.25.471.25.88v1.36h-.677v-1.384c0-.375-.145-.562-.428-.562a.437.437 0 0 0-.356.158c-.091.106-.135.25-.135.433v1.355h-.677v-1.384c0-.375-.145-.562-.433-.562a.441.441 0 0 0-.356.163c-.086.106-.13.25-.13.433v1.35h-.677v-2.475h.591l.063.308a.86.86 0 0 1 .298-.246 1.03 1.03 0 0 1 .432-.091c.351 0 .596.14.736.418a.87.87 0 0 1 .35-.307c.145-.072.313-.111.5-.111a.87.87 0 0 1 .65.264Zm3.252 1.664v.572h-.346c-.312 0-.466-.135-.457-.404a.921.921 0 0 1-.331.322.942.942 0 0 1-.476.11c-.279 0-.5-.062-.668-.187-.168-.125-.25-.308-.25-.538 0-.26.096-.462.288-.606.193-.144.476-.216.846-.216h.49v-.12a.326.326 0 0 0-.124-.265.53.53 0 0 0-.337-.1.542.542 0 0 0-.308.08.325.325 0 0 0-.144.222h-.653a.754.754 0 0 1 .336-.587c.202-.139.466-.211.803-.211.346 0 .615.077.807.23.193.155.289.38.289.669v.87c0 .062.009.106.038.125.024.024.063.034.12.034h.077Zm-.903-.496h-.496a.545.545 0 0 0-.331.087.277.277 0 0 0-.116.235c0 .087.03.16.097.207a.417.417 0 0 0 .269.077.579.579 0 0 0 .418-.149c.1-.1.154-.235.159-.408v-.049Zm1.074 1.404h4.807V24.53h-4.807v4.807Z"/><path fill="#E86317" d="M69.384 36.247a.967.967 0 1 1 0-1.935.967.967 0 1 1 0 1.935Zm0-1.56a.595.595 0 0 0 0 1.187.593.593 0 1 0 0-1.187Z"/><path fill="#E86317" d="M69.384 38.397c-.37 0-.744-.14-1.034-.418-.739-.711-1.555-1.845-1.247-3.194.278-1.224 1.347-1.773 2.28-1.773h.003c.934 0 2.003.548 2.281 1.775.305 1.35-.51 2.481-1.25 3.192-.29.278-.663.418-1.033.418Zm0-5.01c-.729 0-1.665.389-1.913 1.48-.27 1.18.47 2.196 1.142 2.84a1.108 1.108 0 0 0 1.544 0c.669-.644 1.41-1.66 1.145-2.84-.25-1.091-1.19-1.48-1.918-1.48Z"/><path fill="#6A6A6A" d="M74.919 34.26c.311 0 .55.066.719.201a.683.683 0 0 1 .256.56c0 .176-.046.319-.134.432a.71.71 0 0 1-.391.236c.429.084.647.316.647.702a.716.716 0 0 1-.277.598c-.185.143-.446.214-.79.214h-1.073V34.26h1.043Zm-.677 1.278h.694c.185 0 .332-.042.437-.127a.43.43 0 0 0 .156-.349.426.426 0 0 0-.156-.344c-.101-.085-.248-.127-.437-.127h-.694v.947Zm0 1.333h.706c.223 0 .396-.042.513-.13a.423.423 0 0 0 .181-.362.448.448 0 0 0-.18-.379c-.123-.088-.295-.134-.514-.134h-.706v1.005Zm2.38-1.317a.934.934 0 0 1 .362-.382.996.996 0 0 1 .53-.139c.193 0 .37.042.521.122a.93.93 0 0 1 .358.353c.084.156.13.337.139.543 0 .033-.004.08-.009.147h-1.665v.03c.004.21.067.378.193.504a.64.64 0 0 0 .484.19.67.67 0 0 0 .391-.114.556.556 0 0 0 .219-.324h.349a.897.897 0 0 1-.316.538.938.938 0 0 1-.618.206c-.214 0-.4-.042-.56-.134a.948.948 0 0 1-.374-.387 1.212 1.212 0 0 1-.13-.576c0-.219.042-.408.126-.577Zm1.552.358a.613.613 0 0 0-.206-.425.669.669 0 0 0-.45-.151.638.638 0 0 0-.64.576h1.296Zm3.855-.652c.151.151.227.387.227.707v1.236h-.345v-1.215c0-.206-.046-.366-.134-.476a.456.456 0 0 0-.375-.164.515.515 0 0 0-.424.19c-.101.126-.152.298-.152.517v1.148h-.345v-1.215c0-.206-.046-.366-.134-.476a.473.473 0 0 0-.383-.164.492.492 0 0 0-.416.202.843.843 0 0 0-.152.522v1.131h-.345v-2.145h.299l.046.295a.735.735 0 0 1 .627-.32c.151 0 .29.038.408.105s.21.168.27.303c.15-.27.399-.408.744-.408a.79.79 0 0 1 .584.227Zm2.407-.097a.934.934 0 0 1 .365.379c.089.168.135.361.135.589 0 .218-.046.408-.135.572a.956.956 0 0 1-.365.387c-.16.092-.337.138-.53.138a.958.958 0 0 1-.446-.092.702.702 0 0 1-.29-.26l-.047.327h-.298V34.26h.345v1.144a.865.865 0 0 1 .736-.37c.197 0 .374.046.53.13Zm-.05 1.54a.83.83 0 0 0 .197-.572.826.826 0 0 0-.198-.568.656.656 0 0 0-.513-.223.662.662 0 0 0-.618.378.892.892 0 0 0-.089.404c0 .156.03.295.089.417a.649.649 0 0 0 .248.281c.11.068.231.101.37.101.21 0 .383-.071.513-.218Zm1.504.387a.948.948 0 0 1-.375-.387 1.14 1.14 0 0 1-.134-.572c0-.215.042-.404.134-.572a.975.975 0 0 1 .374-.387c.16-.093.345-.139.556-.139.206 0 .39.046.55.139.16.092.287.223.38.387.088.168.134.357.134.572 0 .218-.046.408-.135.572a.986.986 0 0 1-.378.387c-.16.092-.345.138-.551.138-.21 0-.396-.046-.555-.138Zm.925-.27a.658.658 0 0 0 .252-.281.908.908 0 0 0 .089-.408.922.922 0 0 0-.089-.408.683.683 0 0 0-.252-.282.688.688 0 0 0-.37-.101.692.692 0 0 0-.375.1.673.673 0 0 0-.248.283.922.922 0 0 0-.088.408c0 .151.03.29.088.408a.649.649 0 0 0 .248.281c.11.068.232.101.375.101.139 0 .26-.033.37-.1Zm2.745-.58a.636.636 0 0 0 .24.48.845.845 0 0 0 .555.176c.202 0 .362-.042.488-.13a.425.425 0 0 0 .19-.37.374.374 0 0 0-.106-.274.624.624 0 0 0-.265-.147 4.052 4.052 0 0 0-.437-.097c-.295-.05-.53-.13-.703-.248-.176-.113-.26-.298-.26-.56 0-.163.041-.31.126-.437a.852.852 0 0 1 .353-.298c.151-.068.328-.105.526-.105.206 0 .39.038.55.113.16.076.287.185.38.32.092.134.142.29.155.467h-.362a.631.631 0 0 0-.231-.413.8.8 0 0 0-.492-.155.77.77 0 0 0-.467.13.413.413 0 0 0-.173.358c0 .113.034.202.101.265.068.063.152.11.261.143.105.033.252.063.438.092.294.05.53.135.706.253.177.117.265.302.265.559 0 .168-.046.32-.135.45a.835.835 0 0 1-.37.307c-.16.076-.34.11-.542.11-.231 0-.433-.038-.602-.123a.927.927 0 0 1-.4-.349 1.063 1.063 0 0 1-.15-.517h.361Zm2.521-.866h-.387v-.316h.387v-.601h.345v.601h.543v.316h-.543v1.266c0 .092.017.155.05.193.034.038.097.055.186.055h.374v.315h-.395c-.202 0-.35-.042-.434-.135-.084-.088-.126-.23-.126-.424v-1.27Zm2.416-.316v.337h-.173c-.206 0-.353.071-.441.206a.925.925 0 0 0-.13.509v1.093h-.346v-2.145h.299l.046.324a.677.677 0 0 1 .24-.235c.097-.06.231-.089.408-.089h.097Zm.368.496a.934.934 0 0 1 .362-.382.996.996 0 0 1 .53-.139c.194 0 .37.042.522.122.151.084.269.202.357.353.084.156.13.337.139.543 0 .033-.004.08-.009.147h-1.665v.03c.004.21.067.378.193.504a.64.64 0 0 0 .484.19.67.67 0 0 0 .391-.114.555.555 0 0 0 .219-.324h.349a.898.898 0 0 1-.315.538.938.938 0 0 1-.619.206c-.214 0-.4-.042-.559-.134a.949.949 0 0 1-.374-.387 1.212 1.212 0 0 1-.13-.576c0-.219.041-.408.125-.577Zm1.552.358a.614.614 0 0 0-.206-.425.67.67 0 0 0-.45-.151.638.638 0 0 0-.639.576h1.295Zm.928-.358a.934.934 0 0 1 .362-.382.996.996 0 0 1 .53-.139c.193 0 .37.042.521.122.152.084.27.202.358.353.084.156.13.337.138.543 0 .033-.004.08-.008.147h-1.665v.03c.004.21.067.378.193.504a.64.64 0 0 0 .484.19.67.67 0 0 0 .39-.114.555.555 0 0 0 .22-.324h.349a.898.898 0 0 1-.316.538.938.938 0 0 1-.618.206c-.215 0-.4-.042-.56-.134a.949.949 0 0 1-.374-.387 1.212 1.212 0 0 1-.13-.576c0-.219.042-.408.126-.577Zm1.552.358a.614.614 0 0 0-.206-.425.67.67 0 0 0-.45-.151.638.638 0 0 0-.64.576h1.296Zm.995-.538h-.386v-.316h.386v-.601h.345v.601h.543v.316h-.543v1.266c0 .092.017.155.051.193.034.038.097.055.185.055h.374v.315h-.395c-.202 0-.349-.042-.433-.135-.084-.088-.127-.23-.127-.424v-1.27Zm1.743 1.514a.523.523 0 0 1 .092.303c0 .18-.055.32-.16.42a.62.62 0 0 1-.433.16v-.198c.122 0 .21-.038.269-.105a.354.354 0 0 0 .084-.231c0-.026-.004-.042-.004-.055a.197.197 0 0 1-.143.05.21.21 0 0 1-.16-.058c-.042-.038-.063-.093-.063-.169 0-.067.021-.126.072-.172a.292.292 0 0 1 .206-.072c.101 0 .181.043.24.127Zm1.874-2.629h.366v2.944h-.366V34.26Zm2.623.904a.93.93 0 0 1 .366.379c.089.168.135.361.135.589 0 .218-.046.408-.135.572a.951.951 0 0 1-.366.387 1.036 1.036 0 0 1-.53.138.956.956 0 0 1-.445-.092.703.703 0 0 1-.291-.26l-.046.327h-.298V34.26h.344v1.144a.865.865 0 0 1 .736-.37c.198 0 .375.046.53.13Zm-.05 1.54a.831.831 0 0 0 .198-.572.828.828 0 0 0-.198-.568.656.656 0 0 0-.513-.223.687.687 0 0 0-.37.1.651.651 0 0 0-.248.279.89.89 0 0 0-.089.403c0 .156.03.295.089.417a.639.639 0 0 0 .248.281c.109.068.231.101.37.101.21 0 .383-.071.513-.218Zm3.077.185v.315h-.189c-.139 0-.235-.025-.294-.084a.326.326 0 0 1-.093-.248c-.168.24-.408.357-.719.357-.24 0-.433-.054-.576-.168a.548.548 0 0 1-.215-.458c0-.215.072-.379.219-.497.147-.113.362-.172.643-.172h.631v-.147a.412.412 0 0 0-.143-.328.602.602 0 0 0-.391-.118.632.632 0 0 0-.37.1.399.399 0 0 0-.177.262h-.344a.682.682 0 0 1 .277-.492c.16-.118.37-.177.631-.177.273 0 .484.067.635.202.151.134.227.324.227.572v.925c0 .105.046.156.143.156h.105Zm-.593-.665h-.664c-.32 0-.48.122-.48.358 0 .109.042.193.126.256a.532.532 0 0 0 .341.097c.21 0 .374-.055.496-.164a.576.576 0 0 0 .181-.442v-.105Zm3.02-1.964v2.944h-.298l-.047-.345a.86.86 0 0 1-.736.37c-.202 0-.378-.042-.534-.13a.892.892 0 0 1-.366-.379 1.233 1.233 0 0 1-.13-.588c0-.215.042-.404.13-.572a.974.974 0 0 1 .37-.387 1.02 1.02 0 0 1 .53-.139.98.98 0 0 1 .446.097.743.743 0 0 1 .29.256V34.26h.345Zm-.681 2.566a.674.674 0 0 0 .252-.278.907.907 0 0 0 .089-.408.94.94 0 0 0-.089-.412.671.671 0 0 0-.618-.387.657.657 0 0 0-.517.223c-.131.147-.194.336-.194.568 0 .235.063.424.194.572.13.147.302.218.517.218a.68.68 0 0 0 .366-.096Zm3.283.063v.315h-.189c-.139 0-.235-.025-.294-.084a.326.326 0 0 1-.093-.248c-.168.24-.408.357-.719.357-.24 0-.433-.054-.576-.168a.548.548 0 0 1-.215-.458c0-.215.072-.379.219-.497.147-.113.362-.172.643-.172h.631v-.147a.412.412 0 0 0-.143-.328.602.602 0 0 0-.391-.118.632.632 0 0 0-.37.1.399.399 0 0 0-.177.262h-.344a.682.682 0 0 1 .277-.492c.16-.118.37-.177.631-.177.273 0 .484.067.635.202.151.134.227.324.227.572v.925c0 .105.046.156.143.156h.105Zm-.593-.665h-.664c-.32 0-.48.122-.48.358 0 .109.042.193.126.256a.532.532 0 0 0 .341.097c.21 0 .374-.055.496-.164a.576.576 0 0 0 .181-.442v-.105Zm2.663-.954c.16.16.239.403.239.74v1.194h-.344V36.03c0-.219-.051-.387-.152-.505s-.244-.177-.429-.177a.582.582 0 0 0-.475.21c-.118.144-.173.333-.173.573v1.072h-.344v-2.145h.298l.046.29c.16-.21.396-.315.707-.315.261 0 .467.08.627.236Z"/><g clip-path="url(#e)"><rect width="102.741" height="25.535" x="48.956" y="46.382" fill="#E86317" rx="1.502"/><path fill="url(#f)" fill-opacity=".15" d="M140.257 80.926c-3.146-.34-6.27-2.347-7.845-3.312-2.77-1.695-5.226-3.443-8.221-5.098a45.797 45.797 0 0 0-11.086-4.373c-4.468-1.128-9.894-1.746-14.302-1.326-3.388.322-5.86 1.2-8.298 2.031-3.437 1.173-7.059 2.305-11.47 3.012-4.411.707-9.73.961-15.062.353-5.813-.665-11.1-2.29-15.17-4.13-1.072-.484-2.113-1.017-2.409-1.58-.216-.41-.015-.797.187-1.172l4.777-8.903c.057-.11.142-.23.424-.265.233-.027.522.013.787.054l93.495 14.303c-.963 1.74-1.93 3.484-2.897 5.228-.94 1.695-1.431 3.578-2.91 5.178Z"/><path fill="url(#g)" fill-opacity=".15" d="M256.802 77.248c-7.008-.788-13.97-5.435-17.479-7.67-6.17-3.926-11.643-7.973-18.315-11.807a99.832 99.832 0 0 0-24.7-10.13c-9.957-2.612-22.045-4.042-31.868-3.07-7.548.745-13.054 2.778-18.487 4.704-7.659 2.716-15.728 5.338-25.556 6.975-9.828 1.637-21.68 2.227-33.56.817-12.95-1.538-24.732-5.302-33.798-9.563-2.388-1.122-4.708-2.357-5.368-3.66-.482-.952-.034-1.846.416-2.716L58.731 20.51c.128-.253.317-.533.945-.613.518-.065 1.162.03 1.752.123L269.74 53.146a9438.229 9438.229 0 0 1-6.454 12.11c-2.095 3.927-3.188 8.286-6.484 11.992Z"/><path stroke="#AFC1FF" stroke-miterlimit="10" stroke-opacity=".15" stroke-width=".482" d="M-532.291 65.328c12.46-4.92 63.606 28.032 76.073 23.11 12.466-4.924-38.688-37.874-26.221-42.797 12.466-4.923 63.606 28.032 76.072 23.11 12.466-4.924-38.687-37.874-26.221-42.797 12.466-4.923 63.607 28.032 76.073 23.11 12.466-4.924-38.688-37.873-26.221-42.796 12.466-4.923 63.606 28.032 76.072 23.109 12.467-4.923-38.687-37.873-26.227-42.794 12.459-4.92 63.613 28.03 76.099 23.099 12.486-4.931-38.687-37.873-26.228-42.793 12.46-4.92 63.62 28.026 76.053 23.117 12.433-4.91-38.688-37.873-26.188-42.81 12.5-4.936 63.606 28.033 76.066 23.112 12.46-4.92-38.681-37.875-26.221-42.796 12.459-4.92 63.606 28.032 76.073 23.11 12.466-4.924-38.688-37.873-26.228-42.794 12.459-4.92 63.613 28.03 76.08 23.106 12.465-4.922-38.688-37.872-26.222-42.795 12.466-4.923 63.606 28.032 76.073 23.109 12.466-4.923-38.688-37.873-26.221-42.796 12.466-4.923 63.606 28.032 76.072 23.109 12.466-4.923-38.687-37.873-26.22-42.796 12.465-4.923 63.606 28.032 76.072 23.109 12.466-4.923-38.68-37.875-26.221-42.796 12.46-4.92 63.613 28.03 76.072 23.109 12.46-4.92-38.68-37.875-26.221-42.796 12.46-4.92 63.613 28.03 76.08 23.107 12.466-4.923-38.688-37.873-26.221-42.796 12.466-4.923 63.613 28.029 76.072 23.109 12.46-4.921-38.681-37.876-26.214-42.799 12.466-4.923 63.613 28.03 76.079 23.107 12.466-4.923-38.681-37.876-26.221-42.796M-347.875 184.142c12.459-4.921 63.606 28.032 76.073 23.109 12.466-4.923-38.688-37.873-26.222-42.796 12.467-4.923 63.607 28.032 76.073 23.109 12.466-4.923-38.687-37.873-26.221-42.796 12.466-4.923 63.606 28.032 76.073 23.109 12.466-4.923-38.688-37.873-26.221-42.796 12.466-4.923 63.606 28.032 76.072 23.109 12.466-4.923-38.687-37.873-26.228-42.793 12.46-4.92 63.614 28.029 76.1 23.098 12.486-4.931-38.687-37.873-26.228-42.793 12.46-4.92 63.62 28.027 76.053 23.117 12.432-4.91-38.688-37.873-26.188-42.809 12.5-4.936 63.606 28.032 76.066 23.112 12.46-4.92-38.68-37.876-26.221-42.796 12.46-4.92 63.606 28.032 76.073 23.109C89.644 64.512 38.49 31.562 50.95 26.642c12.46-4.92 63.613 28.029 76.079 23.106 12.466-4.923-38.687-37.873-26.221-42.796 12.466-4.923 63.606 28.032 76.073 23.11 12.466-4.924-38.688-37.874-26.221-42.797 12.466-4.923 63.606 28.032 76.072 23.11 12.466-4.924-38.687-37.873-26.221-42.797 12.466-4.922 63.606 28.033 76.073 23.11 12.466-4.924-38.681-37.876-26.221-42.796 12.459-4.92 63.613 28.029 76.072 23.109 12.46-4.92-38.68-37.876-26.221-42.796 12.46-4.92 63.613 28.03 76.079 23.106 12.467-4.923-38.687-37.873-26.221-42.796 12.467-4.923 63.613 28.03 76.073 23.11 12.46-4.921-38.681-37.876-26.214-42.799 12.466-4.923 63.613 28.03 76.079 23.106 12.466-4.923-38.681-37.875-26.221-42.796M-84.022 354.134c12.46-4.92 63.606 28.032 76.073 23.109 12.466-4.923-38.688-37.873-26.221-42.796 12.466-4.923 63.606 28.032 76.072 23.109 12.466-4.923-38.687-37.872-26.22-42.795 12.465-4.923 63.605 28.032 76.072 23.109 12.466-4.923-38.688-37.873-26.221-42.796 12.466-4.923 63.606 28.032 76.072 23.109 12.466-4.923-38.687-37.873-26.227-42.793 12.459-4.921 63.613 28.029 76.099 23.098 12.486-4.931-38.687-37.873-26.228-42.793 12.46-4.921 63.62 28.027 76.053 23.117s-38.688-37.873-26.188-42.809c12.5-4.936 63.606 28.032 76.066 23.111 12.46-4.92-38.681-37.875-26.221-42.795 12.459-4.921 63.606 28.032 76.072 23.109 12.467-4.924-38.687-37.873-26.227-42.794 12.459-4.92 63.613 28.03 76.079 23.107 12.466-4.923-38.687-37.873-26.221-42.796 12.466-4.923 63.606 28.032 76.073 23.109 12.466-4.923-38.688-37.873-26.221-42.796 12.466-4.923 63.606 28.032 76.072 23.109 12.466-4.923-38.687-37.873-26.221-42.796 12.466-4.923 63.606 28.032 76.073 23.109 12.466-4.923-38.681-37.875-26.221-42.796 12.459-4.92 63.613 28.03 76.072 23.109 12.46-4.92-38.68-37.875-26.221-42.795 12.46-4.92 63.613 28.029 76.08 23.106 12.466-4.923-38.688-37.873-26.222-42.796 12.467-4.923 63.613 28.029 76.073 23.109 12.46-4.92-38.681-37.875-26.214-42.798 12.466-4.923 63.613 28.029 76.079 23.106 12.466-4.923-38.681-37.875-26.221-42.796M-586.123 30.645c12.46-4.92 63.607 28.033 76.073 23.11 12.466-4.924-38.687-37.873-26.221-42.796 12.466-4.923 63.606 28.032 76.073 23.109 12.466-4.923-38.688-37.873-26.222-42.796 12.467-4.923 63.607 28.032 76.073 23.109 12.466-4.923-38.687-37.873-26.221-42.796 12.466-4.923 63.606 28.032 76.073 23.109 12.466-4.923-38.688-37.873-26.228-42.793 12.459-4.92 63.613 28.03 76.099 23.098 12.486-4.93-38.687-37.872-26.228-42.793 12.46-4.92 63.62 28.027 76.053 23.117s-38.687-37.873-26.188-42.809c12.5-4.936 63.607 28.032 76.066 23.112 12.46-4.92-38.68-37.876-26.221-42.796 12.46-4.921 63.607 28.032 76.073 23.109 12.466-4.923-38.687-37.873-26.228-42.793 12.46-4.921 63.613 28.029 76.079 23.106 12.467-4.923-38.687-37.873-26.221-42.796 12.467-4.923 63.607 28.032 76.073 23.109 12.466-4.923-38.687-37.873-26.221-42.796 12.466-4.923 63.606 28.032 76.073 23.109 12.466-4.923-38.688-37.873-26.222-42.796 12.467-4.923 63.607 28.032 76.073 23.109 12.466-4.923-38.68-37.875-26.221-42.795 12.46-4.921 63.613 28.029 76.073 23.109 12.459-4.921-38.681-37.876-26.221-42.796 12.46-4.921 63.613 28.029 76.079 23.106 12.466-4.923-38.687-37.873-26.221-42.796 12.466-4.923 63.613 28.03 76.072 23.109 12.46-4.92-38.68-37.875-26.214-42.798 12.466-4.923 63.613 28.029 76.079 23.106 12.467-4.923-38.68-37.875-26.221-42.796M-401.707 149.459c12.459-4.92 63.606 28.032 76.072 23.109 12.467-4.923-38.687-37.872-26.221-42.795 12.467-4.923 63.607 28.032 76.073 23.109 12.466-4.923-38.687-37.873-26.221-42.796 12.466-4.923 63.606 28.032 76.073 23.109 12.466-4.923-38.688-37.873-26.222-42.796 12.467-4.923 63.607 28.032 76.073 23.109 12.466-4.923-38.687-37.873-26.228-42.793 12.46-4.92 63.613 28.03 76.1 23.098 12.486-4.93-38.688-37.873-26.228-42.793 12.459-4.92 63.62 28.027 76.053 23.117 12.432-4.91-38.688-37.873-26.188-42.81 12.5-4.935 63.606 28.033 76.066 23.113 12.46-4.92-38.68-37.876-26.221-42.796 12.46-4.92 63.606 28.032 76.072 23.109C35.812 29.83-15.34-3.12-2.88-8.04c12.46-4.92 63.613 28.029 76.079 23.106C85.664 10.143 34.51-22.807 46.977-27.73 59.443-32.653 110.583.302 123.049-4.62c12.467-4.923-38.687-37.873-26.22-42.796 12.466-4.923 63.606 28.032 76.072 23.11 12.466-4.924-38.687-37.874-26.221-42.797 12.466-4.923 63.606 28.032 76.073 23.11 12.466-4.924-38.681-37.876-26.222-42.796 12.46-4.92 63.614 28.029 76.073 23.109 12.46-4.92-38.681-37.876-26.221-42.796 12.46-4.921 63.613 28.03 76.079 23.106 12.467-4.923-38.687-37.873-26.221-42.796 12.467-4.923 63.613 28.03 76.073 23.109 12.459-4.92-38.681-37.875-26.215-42.798 12.467-4.923 63.614 28.029 76.08 23.106 12.466-4.923-38.681-37.875-26.221-42.796M-137.854 319.452c12.459-4.92 63.606 28.032 76.072 23.109 12.466-4.923-38.687-37.873-26.22-42.796 12.465-4.923 63.606 28.032 76.072 23.109 12.466-4.923-38.687-37.872-26.221-42.796 12.466-4.923 63.606 28.032 76.072 23.109 12.467-4.923-38.687-37.872-26.22-42.795 12.466-4.923 63.606 28.032 76.072 23.109 12.466-4.923-38.687-37.873-26.228-42.794 12.46-4.92 63.613 28.03 76.1 23.099 12.486-4.931-38.688-37.873-26.228-42.793 12.459-4.921 63.62 28.026 76.052 23.117 12.433-4.91-38.687-37.873-26.187-42.809 12.499-4.937 63.606 28.032 76.066 23.111 12.459-4.92-38.681-37.875-26.221-42.796 12.459-4.92 63.606 28.032 76.072 23.109 12.466-4.923-38.687-37.872-26.228-42.793 12.46-4.92 63.614 28.03 76.08 23.107 12.466-4.923-38.688-37.873-26.221-42.796 12.466-4.923 63.606 28.032 76.072 23.109 12.467-4.923-38.687-37.873-26.221-42.796 12.466-4.923 63.607 28.032 76.073 23.109 12.466-4.923-38.687-37.873-26.221-42.796 12.466-4.923 63.606 28.032 76.072 23.109 12.467-4.923-38.68-37.875-26.221-42.796 12.46-4.92 63.613 28.03 76.073 23.109 12.46-4.92-38.681-37.875-26.221-42.796 12.459-4.92 63.613 28.03 76.079 23.107 12.466-4.923-38.687-37.873-26.221-42.796 12.466-4.923 63.613 28.03 76.073 23.109 12.459-4.92-38.681-37.876-26.215-42.799 12.467-4.923 63.613 28.03 76.08 23.107 12.466-4.923-38.681-37.876-26.221-42.796"/><path stroke="#AFC1FF" stroke-miterlimit="10" stroke-opacity=".15" stroke-width=".482" d="M-481.144 98.28c12.46-4.92 63.606 28.033 76.073 23.11 12.466-4.923-38.688-37.873-26.221-42.796 12.466-4.923 63.606 28.032 76.072 23.109 12.466-4.923-38.687-37.873-26.221-42.796 12.466-4.923 63.607 28.032 76.073 23.11 12.466-4.924-38.687-37.874-26.221-42.797 12.466-4.923 63.606 28.032 76.072 23.11 12.467-4.924-38.687-37.874-26.227-42.794 12.459-4.92 63.613 28.03 76.099 23.099 12.486-4.931-38.687-37.873-26.228-42.794 12.46-4.92 63.62 28.027 76.053 23.117s-38.687-37.873-26.188-42.809c12.5-4.936 63.607 28.032 76.066 23.112 12.46-4.92-38.681-37.876-26.221-42.796 12.46-4.92 63.606 28.032 76.073 23.109 12.466-4.923-38.688-37.873-26.228-42.793 12.46-4.92 63.613 28.03 76.08 23.106C6.226-41.036-44.927-73.986-32.46-78.909c12.466-4.923 63.606 28.032 76.073 23.11 12.466-4.924-38.688-37.873-26.221-42.797 12.466-4.923 63.606 28.032 76.072 23.11 12.466-4.923-38.687-37.873-26.22-42.796 12.466-4.923 63.606 28.032 76.072 23.109 12.466-4.923-38.681-37.876-26.221-42.796 12.459-4.921 63.613 28.029 76.072 23.109 12.46-4.921-38.68-37.876-26.221-42.796 12.46-4.92 63.613 28.029 76.08 23.106 12.466-4.923-38.688-37.872-26.221-42.795 12.466-4.924 63.613 28.029 76.072 23.109 12.46-4.921-38.68-37.876-26.214-42.799 12.466-4.923 63.613 28.029 76.079 23.106 12.466-4.923-38.681-37.875-26.221-42.795M-217.291 268.273c12.46-4.92 63.606 28.032 76.073 23.109 12.466-4.923-38.688-37.873-26.221-42.796 12.466-4.923 63.606 28.032 76.072 23.109 12.466-4.923-38.687-37.873-26.221-42.796 12.466-4.923 63.606 28.032 76.073 23.109 12.466-4.923-38.688-37.873-26.221-42.796 12.466-4.923 63.606 28.032 76.072 23.109 12.466-4.923-38.687-37.872-26.227-42.793 12.46-4.92 63.613 28.03 76.099 23.099 12.486-4.931-38.687-37.873-26.228-42.793 12.46-4.921 63.62 28.026 76.053 23.116 12.433-4.909-38.688-37.872-26.188-42.809 12.5-4.936 63.606 28.032 76.066 23.112 12.46-4.92-38.681-37.875-26.221-42.796 12.459-4.92 63.606 28.032 76.073 23.109 12.466-4.923-38.688-37.873-26.228-42.793 12.459-4.92 63.613 28.029 76.079 23.106 12.466-4.923-38.687-37.872-26.221-42.795 12.466-4.924 63.606 28.032 76.073 23.109 12.466-4.924-38.688-37.873-26.221-42.796 12.466-4.923 63.606 28.032 76.072 23.109 12.466-4.923-38.687-37.873-26.221-42.796 12.466-4.923 63.607 28.032 76.073 23.109 12.466-4.923-38.681-37.876-26.221-42.796 12.459-4.92 63.613 28.03 76.072 23.109 12.46-4.92-38.68-37.875-26.221-42.796 12.46-4.92 63.613 28.03 76.08 23.107 12.466-4.923-38.688-37.873-26.222-42.796 12.467-4.923 63.614 28.03 76.073 23.109 12.46-4.92-38.681-37.876-26.214-42.799 12.466-4.923 63.613 28.03 76.079 23.107 12.466-4.923-38.681-37.876-26.221-42.796M-296.728 217.094c12.46-4.92 63.606 28.032 76.073 23.109 12.466-4.923-38.688-37.873-26.221-42.796 12.466-4.923 63.606 28.032 76.072 23.109 12.466-4.923-38.687-37.872-26.221-42.795 12.466-4.923 63.607 28.032 76.073 23.109 12.466-4.923-38.687-37.873-26.221-42.796 12.466-4.923 63.606 28.032 76.072 23.109 12.467-4.923-38.687-37.873-26.227-42.793 12.46-4.921 63.613 28.029 76.099 23.098 12.486-4.931-38.687-37.873-26.228-42.793 12.46-4.921 63.62 28.027 76.053 23.117s-38.688-37.873-26.188-42.81c12.5-4.936 63.606 28.033 76.066 23.112 12.46-4.92-38.68-37.875-26.221-42.796 12.46-4.92 63.606 28.033 76.073 23.109 12.466-4.922-38.688-37.872-26.228-42.793 12.459-4.92 63.613 28.03 76.079 23.107 12.466-4.923-38.687-37.873-26.221-42.796 12.466-4.923 63.607 28.032 76.073 23.109 12.466-4.923-38.688-37.873-26.221-42.796 12.466-4.923 63.606 28.032 76.072 23.109 12.466-4.923-38.687-37.873-26.221-42.796 12.466-4.923 63.607 28.032 76.073 23.11 12.466-4.924-38.681-37.876-26.221-42.797 12.459-4.92 63.613 28.03 76.072 23.11 12.46-4.921-38.68-37.876-26.221-42.796 12.46-4.92 63.613 28.029 76.08 23.106 12.466-4.923-38.688-37.873-26.221-42.796 12.466-4.923 63.613 28.03 76.072 23.109 12.46-4.92-38.68-37.875-26.214-42.798 12.466-4.923 63.613 28.029 76.079 23.106 12.466-4.923-38.681-37.875-26.221-42.796M-611.728 14.15c12.46-4.921 63.607 28.031 76.073 23.108 12.466-4.923-38.687-37.872-26.221-42.795 12.466-4.923 63.606 28.032 76.073 23.109 12.466-4.923-38.688-37.873-26.222-42.796 12.467-4.923 63.607 28.032 76.073 23.109 12.466-4.923-38.687-37.873-26.221-42.796 12.466-4.923 63.606 28.032 76.073 23.109 12.466-4.923-38.688-37.873-26.228-42.793 12.459-4.92 63.613 28.03 76.099 23.098 12.486-4.93-38.687-37.873-26.228-42.793 12.46-4.92 63.62 28.027 76.053 23.117s-38.687-37.873-26.188-42.809c12.5-4.936 63.607 28.032 76.066 23.111 12.46-4.92-38.68-37.875-26.221-42.795 12.46-4.921 63.607 28.032 76.073 23.109 12.466-4.923-38.687-37.873-26.228-42.794 12.46-4.92 63.613 28.03 76.079 23.107 12.467-4.923-38.687-37.873-26.221-42.796 12.467-4.923 63.607 28.032 76.073 23.109 12.466-4.923-38.687-37.873-26.221-42.796 12.466-4.923 63.606 28.032 76.072 23.109 12.467-4.923-38.687-37.873-26.22-42.796 12.466-4.923 63.606 28.032 76.072 23.109 12.466-4.923-38.68-37.875-26.22-42.796 12.459-4.92 63.612 28.03 76.072 23.109 12.46-4.92-38.681-37.875-26.221-42.795 12.46-4.921 63.613 28.029 76.079 23.106 12.466-4.923-38.687-37.873-26.221-42.796 12.466-4.923 63.613 28.03 76.072 23.109 12.46-4.92-38.68-37.875-26.214-42.798 12.466-4.923 63.613 28.029 76.079 23.106 12.467-4.923-38.68-37.875-26.221-42.796M-427.312 132.963c12.46-4.92 63.607 28.032 76.073 23.109 12.466-4.923-38.687-37.872-26.221-42.795 12.466-4.923 63.606 28.032 76.072 23.109 12.467-4.923-38.687-37.873-26.221-42.796 12.467-4.923 63.607 28.032 76.073 23.109 12.466-4.923-38.687-37.873-26.221-42.796 12.466-4.923 63.606 28.032 76.073 23.109 12.466-4.923-38.688-37.873-26.228-42.793 12.459-4.92 63.613 28.03 76.099 23.098 12.486-4.93-38.687-37.873-26.228-42.793 12.46-4.92 63.62 28.027 76.053 23.117s-38.687-37.873-26.188-42.81c12.5-4.935 63.607 28.033 76.066 23.112C-39.65 33.023-90.79.068-78.33-4.852c12.459-4.92 63.606 28.032 76.072 23.109 12.466-4.923-38.688-37.873-26.228-42.794 12.46-4.92 63.613 28.03 76.08 23.107C60.06-6.353 8.905-39.303 21.371-44.226 33.84-49.149 84.98-16.194 97.445-21.117 109.91-26.04 58.758-58.99 71.224-63.913c12.466-4.923 63.606 28.032 76.072 23.11 12.467-4.924-38.687-37.874-26.221-42.797 12.467-4.923 63.607 28.032 76.073 23.11 12.466-4.924-38.681-37.876-26.221-42.797 12.46-4.92 63.613 28.03 76.073 23.11 12.459-4.921-38.681-37.876-26.221-42.796 12.459-4.921 63.613 28.029 76.079 23.106 12.466-4.923-38.687-37.873-26.221-42.796 12.466-4.923 63.613 28.03 76.072 23.109 12.46-4.92-38.68-37.875-26.214-42.798 12.466-4.923 63.613 28.029 76.079 23.106 12.467-4.923-38.68-37.875-26.221-42.796M-163.459 302.956c12.46-4.921 63.607 28.032 76.073 23.109 12.466-4.923-38.687-37.873-26.221-42.796 12.466-4.923 63.606 28.032 76.072 23.109 12.467-4.923-38.687-37.873-26.22-42.796 12.466-4.923 63.606 28.032 76.072 23.109 12.466-4.923-38.687-37.873-26.221-42.796 12.466-4.923 63.606 28.032 76.072 23.109 12.467-4.923-38.687-37.873-26.227-42.793 12.46-4.921 63.613 28.029 76.099 23.098 12.486-4.931-38.687-37.872-26.228-42.793 12.46-4.92 63.62 28.027 76.053 23.117s-38.687-37.873-26.188-42.809c12.5-4.936 63.607 28.032 76.066 23.112 12.46-4.921-38.68-37.876-26.221-42.796 12.46-4.921 63.607 28.032 76.073 23.109 12.466-4.923-38.688-37.873-26.228-42.793 12.46-4.921 63.613 28.029 76.079 23.106 12.467-4.923-38.687-37.873-26.221-42.796 12.466-4.923 63.607 28.032 76.073 23.109 12.466-4.923-38.687-37.873-26.221-42.796 12.466-4.923 63.606 28.032 76.072 23.109 12.467-4.923-38.687-37.872-26.221-42.795 12.467-4.924 63.607 28.031 76.073 23.108 12.466-4.923-38.681-37.875-26.221-42.795 12.459-4.92 63.613 28.029 76.073 23.109 12.459-4.92-38.681-37.876-26.222-42.796 12.46-4.92 63.614 28.03 76.08 23.106 12.466-4.923-38.687-37.873-26.221-42.796 12.466-4.923 63.613 28.03 76.072 23.11 12.46-4.921-38.68-37.876-26.214-42.8 12.466-4.922 63.613 28.03 76.079 23.107 12.467-4.923-38.68-37.875-26.221-42.796"/><path stroke="#AFC1FF" stroke-miterlimit="10" stroke-opacity=".15" stroke-width=".482" d="M-506.748 81.785c12.459-4.92 63.606 28.032 76.072 23.109 12.466-4.923-38.687-37.873-26.221-42.796 12.466-4.923 63.607 28.032 76.073 23.109 12.466-4.923-38.687-37.873-26.221-42.796 12.466-4.923 63.606 28.032 76.072 23.109 12.467-4.923-38.687-37.873-26.221-42.796 12.467-4.923 63.607 28.032 76.073 23.11 12.466-4.924-38.687-37.874-26.228-42.794 12.46-4.92 63.613 28.03 76.1 23.098 12.486-4.93-38.688-37.872-26.228-42.793 12.459-4.92 63.62 28.027 76.052 23.117 12.433-4.91-38.687-37.873-26.187-42.809 12.499-4.936 63.606 28.032 76.066 23.112 12.459-4.92-38.681-37.876-26.221-42.796 12.459-4.92 63.606 28.032 76.072 23.109 12.466-4.923-38.687-37.873-26.228-42.793 12.46-4.92 63.614 28.03 76.08 23.106 12.466-4.923-38.688-37.873-26.221-42.796 12.466-4.923 63.606 28.032 76.072 23.11 12.466-4.924-38.687-37.874-26.22-42.797 12.465-4.923 63.606 28.032 76.072 23.11 12.466-4.924-38.687-37.873-26.221-42.796 12.466-4.923 63.606 28.032 76.072 23.109 12.467-4.923-38.68-37.876-26.22-42.796 12.459-4.921 63.612 28.029 76.072 23.109 12.46-4.921-38.681-37.876-26.221-42.796 12.459-4.92 63.613 28.029 76.079 23.106 12.466-4.923-38.687-37.873-26.221-42.796 12.466-4.923 63.613 28.03 76.073 23.109 12.459-4.92-38.681-37.875-26.215-42.798 12.467-4.923 63.613 28.029 76.08 23.106 12.466-4.923-38.681-37.875-26.221-42.796M-242.896 251.777c12.46-4.921 63.607 28.032 76.073 23.109 12.466-4.923-38.687-37.873-26.221-42.796 12.466-4.923 63.606 28.032 76.073 23.109 12.466-4.923-38.688-37.873-26.222-42.796 12.467-4.923 63.607 28.032 76.073 23.109 12.466-4.923-38.687-37.873-26.221-42.796 12.466-4.923 63.606 28.032 76.073 23.109 12.466-4.923-38.688-37.872-26.228-42.793 12.46-4.92 63.613 28.03 76.1 23.099C45.09 191.2-6.085 158.258 6.374 153.337c12.46-4.92 63.62 28.027 76.053 23.117s-38.687-37.872-26.188-42.809c12.5-4.936 63.607 28.032 76.066 23.112 12.46-4.92-38.68-37.876-26.221-42.796 12.46-4.92 63.607 28.032 76.073 23.109 12.466-4.923-38.687-37.873-26.228-42.793 12.46-4.92 63.613 28.029 76.079 23.106 12.467-4.923-38.687-37.873-26.221-42.796 12.467-4.923 63.607 28.032 76.073 23.11 12.466-4.924-38.687-37.873-26.221-42.796 12.466-4.923 63.606 28.032 76.073 23.109 12.466-4.923-38.688-37.873-26.221-42.796 12.466-4.923 63.606 28.032 76.072 23.109 12.466-4.923-38.68-37.876-26.221-42.796 12.46-4.92 63.613 28.03 76.073 23.109C443.875 33.716 392.735.76 405.195-4.16c12.459-4.92 63.613 28.03 76.079 23.106 12.466-4.923-38.687-37.872-26.221-42.795C467.519-28.772 518.666 4.18 531.125-.74c12.46-4.92-38.68-37.876-26.214-42.799 12.466-4.923 63.613 28.03 76.079 23.107 12.467-4.924-38.68-37.876-26.221-42.796M-322.333 200.598c12.46-4.921 63.607 28.032 76.073 23.109 12.466-4.923-38.687-37.873-26.221-42.796 12.466-4.923 63.606 28.032 76.072 23.109 12.467-4.923-38.687-37.873-26.221-42.796 12.467-4.923 63.607 28.032 76.073 23.109 12.466-4.923-38.687-37.873-26.221-42.796 12.466-4.923 63.606 28.032 76.072 23.109 12.467-4.923-38.687-37.873-26.227-42.793 12.459-4.92 63.613 28.029 76.1 23.098 12.485-4.931-38.688-37.872-26.229-42.793 12.46-4.92 63.62 28.027 76.053 23.117s-38.687-37.873-26.188-42.809c12.5-4.936 63.607 28.032 76.066 23.112 12.46-4.921-38.68-37.876-26.22-42.796 12.459-4.92 63.605 28.032 76.072 23.109 12.466-4.923-38.688-37.873-26.228-42.793 12.46-4.92 63.613 28.03 76.079 23.106 12.467-4.923-38.687-37.873-26.221-42.796 12.466-4.923 63.607 28.032 76.073 23.11 12.466-4.924-38.687-37.874-26.221-42.797 12.466-4.923 63.606 28.032 76.072 23.11 12.467-4.924-38.687-37.873-26.221-42.796 12.467-4.924 63.607 28.032 76.073 23.109 12.466-4.923-38.681-37.876-26.221-42.796 12.459-4.92 63.613 28.03 76.073 23.109 12.459-4.92-38.681-37.876-26.222-42.796 12.46-4.92 63.614 28.03 76.08 23.106 12.466-4.923-38.688-37.873-26.221-42.796 12.466-4.923 63.613 28.03 76.072 23.11 12.46-4.921-38.68-37.876-26.214-42.799 12.466-4.923 63.613 28.03 76.079 23.106 12.466-4.923-38.68-37.875-26.221-42.796M-58.48 370.591c12.46-4.921 63.607 28.032 76.073 23.109 12.466-4.923-38.687-37.873-26.221-42.796 12.466-4.923 63.606 28.032 76.073 23.109 12.466-4.923-38.688-37.873-26.221-42.796 12.466-4.923 63.606 28.032 76.072 23.109 12.466-4.923-38.687-37.873-26.22-42.796 12.465-4.923 63.606 28.032 76.072 23.109 12.466-4.923-38.688-37.872-26.228-42.793 12.46-4.92 63.613 28.029 76.099 23.099 12.487-4.931-38.687-37.873-26.227-42.794 12.459-4.92 63.619 28.027 76.052 23.117 12.433-4.91-38.687-37.873-26.188-42.809 12.5-4.936 63.607 28.032 76.066 23.112 12.46-4.921-38.68-37.876-26.221-42.796 12.46-4.92 63.607 28.032 76.073 23.109 12.466-4.923-38.687-37.873-26.228-42.793 12.46-4.921 63.613 28.029 76.08 23.106 12.466-4.923-38.688-37.873-26.222-42.796 12.467-4.923 63.607 28.032 76.073 23.109 12.466-4.923-38.687-37.872-26.221-42.795 12.466-4.923 63.606 28.032 76.073 23.109 12.466-4.923-38.688-37.873-26.221-42.796 12.466-4.923 63.606 28.032 76.072 23.109 12.466-4.923-38.68-37.876-26.221-42.796 12.46-4.92 63.613 28.029 76.073 23.109 12.459-4.921-38.681-37.876-26.221-42.796 12.459-4.92 63.613 28.029 76.079 23.106 12.466-4.923-38.687-37.872-26.221-42.795 12.466-4.923 63.613 28.029 76.073 23.109 12.459-4.921-38.681-37.876-26.215-42.799 12.466-4.923 63.613 28.029 76.079 23.106 12.467-4.923-38.68-37.875-26.221-42.795M-560.58 47.102c12.459-4.92 63.606 28.032 76.072 23.109 12.466-4.923-38.687-37.873-26.221-42.796 12.466-4.923 63.607 28.032 76.073 23.11 12.466-4.924-38.687-37.874-26.221-42.797 12.466-4.923 63.606 28.032 76.072 23.11 12.467-4.924-38.687-37.873-26.221-42.797 12.467-4.922 63.607 28.033 76.073 23.11 12.466-4.923-38.687-37.873-26.228-42.794 12.46-4.92 63.613 28.03 76.099 23.099 12.487-4.931-38.687-37.873-26.227-42.793 12.459-4.92 63.619 28.026 76.052 23.117 12.433-4.91-38.687-37.873-26.187-42.81 12.499-4.936 63.606 28.032 76.066 23.112 12.459-4.92-38.681-37.875-26.221-42.796 12.459-4.92 63.606 28.032 76.072 23.11 12.466-4.924-38.687-37.874-26.228-42.794 12.46-4.92 63.614 28.03 76.08 23.106 12.466-4.923-38.688-37.872-26.221-42.795 12.466-4.923 63.606 28.032 76.072 23.109 12.466-4.923-38.687-37.873-26.22-42.796 12.465-4.923 63.606 28.032 76.072 23.109 12.466-4.923-38.688-37.873-26.221-42.796 12.466-4.923 63.606 28.032 76.072 23.109 12.467-4.923-38.68-37.875-26.22-42.796 12.459-4.92 63.612 28.029 76.072 23.109 12.459-4.92-38.68-37.875-26.221-42.796 12.46-4.92 63.613 28.03 76.079 23.107 12.466-4.923-38.687-37.873-26.221-42.796 12.466-4.923 63.613 28.029 76.073 23.109 12.459-4.921-38.681-37.876-26.215-42.799 12.467-4.923 63.613 28.03 76.08 23.107 12.466-4.923-38.681-37.876-26.221-42.796M-376.165 165.916c12.46-4.921 63.607 28.032 76.073 23.109 12.466-4.924-38.687-37.873-26.221-42.796 12.466-4.923 63.606 28.032 76.073 23.109 12.466-4.923-38.688-37.873-26.221-42.796 12.466-4.923 63.606 28.032 76.072 23.109 12.466-4.923-38.687-37.873-26.221-42.796 12.466-4.923 63.606 28.032 76.073 23.109 12.466-4.923-38.688-37.873-26.228-42.793 12.459-4.92 63.613 28.029 76.099 23.098 12.486-4.931-38.687-37.873-26.227-42.793 12.459-4.92 63.62 28.027 76.052 23.117 12.433-4.91-38.687-37.873-26.188-42.809 12.5-4.936 63.607 28.032 76.066 23.112 12.46-4.92-38.68-37.876-26.22-42.796 12.459-4.92 63.606 28.032 76.072 23.109C61.355 46.286 10.202 13.336 22.66 8.416c12.46-4.92 63.613 28.029 76.08 23.106 12.466-4.923-38.688-37.873-26.222-42.796 12.467-4.923 63.607 28.032 76.073 23.11 12.466-4.924-38.687-37.874-26.221-42.797 12.466-4.923 63.606 28.032 76.073 23.11 12.466-4.924-38.688-37.873-26.221-42.797 12.466-4.923 63.606 28.033 76.072 23.11 12.466-4.924-38.68-37.876-26.221-42.796 12.46-4.92 63.613 28.029 76.073 23.109 12.459-4.92-38.681-37.876-26.221-42.796 12.459-4.92 63.613 28.03 76.079 23.106 12.466-4.923-38.687-37.873-26.221-42.796 12.466-4.923 63.613 28.03 76.072 23.11 12.46-4.921-38.68-37.876-26.214-42.799 12.466-4.923 63.613 28.029 76.079 23.106 12.467-4.923-38.68-37.875-26.221-42.796M-112.312 335.908c12.46-4.92 63.606 28.032 76.073 23.109 12.466-4.923-38.688-37.873-26.221-42.796 12.466-4.923 63.606 28.032 76.072 23.109 12.466-4.923-38.687-37.872-26.22-42.795 12.465-4.923 63.606 28.032 76.072 23.109 12.466-4.924-38.688-37.873-26.221-42.796 12.466-4.923 63.606 28.032 76.072 23.109 12.467-4.923-38.687-37.873-26.227-42.793 12.46-4.921 63.613 28.029 76.099 23.098 12.486-4.931-38.687-37.873-26.228-42.793 12.46-4.921 63.62 28.026 76.053 23.117 12.433-4.91-38.687-37.873-26.188-42.809 12.5-4.937 63.607 28.032 76.066 23.111 12.46-4.92-38.681-37.875-26.221-42.796 12.46-4.92 63.606 28.032 76.073 23.109 12.466-4.923-38.688-37.872-26.228-42.793 12.459-4.92 63.613 28.03 76.079 23.107 12.466-4.923-38.687-37.873-26.221-42.796 12.466-4.923 63.607 28.032 76.073 23.109 12.466-4.923-38.688-37.873-26.221-42.796 12.466-4.923 63.606 28.032 76.072 23.109 12.467-4.923-38.687-37.873-26.221-42.796 12.466-4.923 63.607 28.032 76.073 23.109 12.466-4.923-38.681-37.875-26.221-42.796 12.459-4.92 63.613 28.03 76.072 23.109 12.46-4.92-38.68-37.875-26.221-42.796 12.46-4.92 63.613 28.03 76.08 23.107 12.466-4.923-38.688-37.873-26.221-42.796 12.466-4.923 63.613 28.03 76.072 23.109 12.46-4.92-38.68-37.876-26.214-42.799 12.466-4.922 63.613 28.03 76.079 23.107 12.466-4.923-38.681-37.876-26.221-42.796"/><path stroke="#AFC1FF" stroke-miterlimit="10" stroke-opacity=".15" stroke-width=".482" d="M-455.601 114.737c12.459-4.921 63.606 28.032 76.072 23.109 12.467-4.923-38.687-37.873-26.221-42.796 12.466-4.923 63.607 28.032 76.073 23.109 12.466-4.923-38.687-37.873-26.221-42.796 12.466-4.923 63.606 28.032 76.072 23.11 12.467-4.924-38.687-37.874-26.221-42.797 12.467-4.923 63.607 28.032 76.073 23.11 12.466-4.924-38.687-37.873-26.228-42.794 12.46-4.92 63.613 28.03 76.1 23.099 12.486-4.931-38.688-37.873-26.228-42.794 12.459-4.92 63.62 28.027 76.052 23.117 12.433-4.91-38.687-37.873-26.187-42.809 12.499-4.936 63.606 28.032 76.066 23.112 12.46-4.92-38.681-37.876-26.221-42.796 12.46-4.92 63.606 28.032 76.072 23.11 12.466-4.924-38.687-37.874-26.228-42.794 12.46-4.92 63.614 28.03 76.08 23.106C31.77-24.58-19.384-57.53-6.917-62.453c12.466-4.923 63.606 28.032 76.072 23.11 12.466-4.924-38.687-37.873-26.22-42.796C55.4-87.063 106.54-54.107 119.006-59.03c12.466-4.923-38.687-37.873-26.221-42.796 12.466-4.923 63.606 28.032 76.072 23.109 12.467-4.923-38.68-37.876-26.221-42.796 12.46-4.921 63.613 28.03 76.073 23.109 12.46-4.921-38.681-37.876-26.221-42.796 12.459-4.92 63.613 28.029 76.079 23.106 12.466-4.923-38.687-37.872-26.221-42.795 12.466-4.923 63.613 28.029 76.073 23.109 12.459-4.921-38.681-37.876-26.215-42.799 12.467-4.923 63.613 28.029 76.08 23.106 12.466-4.923-38.681-37.875-26.221-42.795M-191.749 284.73c12.459-4.92 63.606 28.032 76.073 23.109 12.466-4.923-38.688-37.873-26.222-42.796 12.467-4.923 63.607 28.032 76.073 23.109 12.466-4.923-38.687-37.873-26.221-42.796 12.466-4.923 63.606 28.032 76.073 23.109 12.466-4.923-38.688-37.872-26.221-42.796 12.466-4.923 63.606 28.032 76.072 23.109 12.466-4.923-38.687-37.872-26.228-42.793 12.46-4.92 63.613 28.03 76.1 23.099 12.486-4.931-38.688-37.873-26.228-42.793 12.46-4.921 63.62 28.026 76.053 23.116 12.432-4.909-38.688-37.872-26.188-42.809 12.5-4.936 63.606 28.032 76.066 23.112 12.459-4.92-38.681-37.875-26.221-42.796 12.459-4.92 63.606 28.032 76.072 23.109 12.467-4.923-38.687-37.873-26.227-42.793 12.459-4.92 63.613 28.029 76.079 23.106 12.466-4.923-38.687-37.872-26.221-42.795 12.466-4.923 63.606 28.032 76.073 23.109 12.466-4.923-38.688-37.873-26.222-42.796 12.467-4.923 63.607 28.032 76.073 23.109 12.466-4.923-38.687-37.873-26.221-42.796 12.466-4.923 63.606 28.032 76.073 23.109C445.177 86.353 394.03 53.4 406.49 48.48c12.459-4.92 63.613 28.03 76.072 23.109 12.46-4.92-38.68-37.875-26.221-42.796 12.46-4.92 63.613 28.03 76.079 23.107 12.467-4.923-38.687-37.873-26.221-42.796 12.467-4.923 63.613 28.03 76.073 23.109 12.46-4.92-38.681-37.876-26.214-42.799 12.466-4.923 63.613 28.03 76.079 23.107 12.466-4.923-38.681-37.876-26.221-42.796M-271.186 233.55c12.46-4.92 63.607 28.032 76.073 23.109 12.466-4.923-38.687-37.873-26.221-42.796 12.466-4.923 63.606 28.032 76.072 23.109 12.467-4.923-38.687-37.872-26.221-42.795 12.467-4.923 63.607 28.032 76.073 23.109 12.466-4.923-38.687-37.873-26.221-42.796 12.466-4.923 63.606 28.032 76.072 23.109 12.467-4.923-38.687-37.873-26.227-42.793 12.46-4.921 63.613 28.029 76.1 23.098 12.485-4.931-38.688-37.873-26.229-42.793 12.46-4.921 63.62 28.027 76.053 23.117S15.45 120.355 27.95 115.419c12.5-4.936 63.607 28.032 76.066 23.111 12.46-4.92-38.68-37.875-26.22-42.796 12.459-4.92 63.606 28.033 76.072 23.11 12.466-4.923-38.688-37.873-26.228-42.794 12.46-4.92 63.613 28.03 76.079 23.107 12.467-4.923-38.687-37.873-26.221-42.796 12.466-4.923 63.607 28.032 76.073 23.109 12.466-4.923-38.687-37.873-26.221-42.796 12.466-4.923 63.606 28.032 76.072 23.109 12.467-4.923-38.687-37.873-26.221-42.796 12.467-4.923 63.607 28.032 76.073 23.11C365.74 35.172 314.593 2.22 327.053-2.7c12.459-4.92 63.613 28.03 76.073 23.11 12.459-4.921-38.681-37.876-26.222-42.796 12.46-4.92 63.614 28.029 76.08 23.106 12.466-4.923-38.688-37.873-26.221-42.796 12.466-4.923 63.613 28.03 76.072 23.11 12.46-4.921-38.68-37.876-26.214-42.8 12.466-4.922 63.613 28.03 76.079 23.107 12.466-4.923-38.68-37.875-26.221-42.796"/><g fill="#fff" clip-path="url(#h)"><path d="m56.234 52.069.433-.004.537 2.001.562-1.997h.393l.545 1.997.544-1.997h.422l-.721 2.523h-.487l-.515-1.856-.505 1.856h-.487l-.72-2.523Zm5.272 2.184v.34h-.205c-.123 0-.21-.026-.26-.076-.054-.05-.079-.123-.079-.22a.683.683 0 0 1-.61.317c-.208 0-.374-.047-.497-.144a.465.465 0 0 1-.187-.397c0-.187.065-.335.202-.436.133-.101.328-.155.587-.155h.465v-.112c0-.1-.036-.184-.108-.241a.47.47 0 0 0-.299-.09.48.48 0 0 0-.281.075.297.297 0 0 0-.13.195h-.382a.568.568 0 0 1 .245-.43.965.965 0 0 1 .566-.154c.245 0 .436.058.573.173.134.115.202.281.202.497v.729c0 .086.04.13.123.13h.075Zm-.584-.483h-.483a.463.463 0 0 0-.277.072.237.237 0 0 0-.098.206c0 .08.03.144.09.191.062.05.145.072.253.072a.521.521 0 0 0 .375-.13.475.475 0 0 0 .14-.346v-.065Zm.797-1.701h.389v2.523h-.39V52.07Zm.77 0h.39v2.523h-.39V52.07Zm.815 1.106a.804.804 0 0 1 .317-.331.915.915 0 0 1 .469-.12c.176 0 .331.037.468.11a.82.82 0 0 1 .321.305.93.93 0 0 1 .112.613h-1.392v.022a.551.551 0 0 0 .152.382c.09.094.212.14.364.14.119 0 .22-.025.303-.082a.427.427 0 0 0 .162-.242h.39a.757.757 0 0 1-.275.462.833.833 0 0 1-.551.18c-.195 0-.36-.036-.505-.115a.817.817 0 0 1-.332-.332.99.99 0 0 1-.115-.494c0-.187.036-.353.112-.498Zm1.301.293a.475.475 0 0 0-.162-.314.508.508 0 0 0-.339-.115c-.13 0-.238.04-.332.118a.45.45 0 0 0-.158.31h.991Zm.816-.379h-.32v-.342h.32v-.516h.393v.516h.444v.342h-.444v.962c0 .073.015.127.044.156.028.028.075.043.147.043h.296v.342h-.375c-.177 0-.306-.04-.386-.122-.08-.08-.119-.206-.119-.379V53.09Zm2.977-1.02c.274 0 .49.057.642.173.151.115.23.277.23.483a.578.578 0 0 1-.122.375.586.586 0 0 1-.346.194c.375.065.566.264.566.595 0 .22-.083.393-.245.516-.162.126-.393.187-.692.187h-.96V52.07h.927Zm-.512 1.07h.523c.14 0 .249-.032.328-.097a.323.323 0 0 0 .12-.267.32.32 0 0 0-.12-.263.501.501 0 0 0-.328-.097h-.523v.724Zm0 1.104h.548c.163 0 .289-.033.375-.098a.33.33 0 0 0 .134-.277.344.344 0 0 0-.134-.285.634.634 0 0 0-.375-.101h-.548v.76Zm3.594.01v.34h-.206c-.122 0-.209-.026-.26-.076-.053-.05-.078-.123-.078-.22a.683.683 0 0 1-.61.317c-.209 0-.375-.047-.497-.144a.465.465 0 0 1-.188-.397c0-.187.065-.335.202-.436.134-.101.328-.155.588-.155h.465v-.112c0-.1-.036-.184-.108-.241a.47.47 0 0 0-.3-.09.48.48 0 0 0-.28.075.297.297 0 0 0-.13.195h-.383a.568.568 0 0 1 .246-.43.965.965 0 0 1 .566-.154c.245 0 .436.058.573.173.133.115.202.281.202.497v.729c0 .086.04.13.122.13h.076Zm-.584-.483h-.483a.463.463 0 0 0-.278.072.237.237 0 0 0-.097.206c0 .08.029.144.09.191.061.05.144.072.252.072a.521.521 0 0 0 .375-.13.475.475 0 0 0 .14-.346v-.065Zm.796-1.701h.39v2.523h-.39V52.07Zm2.537 2.184v.34h-.205c-.123 0-.21-.026-.26-.076-.054-.05-.079-.123-.079-.22a.683.683 0 0 1-.61.317c-.208 0-.374-.047-.497-.144a.465.465 0 0 1-.187-.397c0-.187.065-.335.202-.436.133-.101.328-.155.587-.155h.465v-.112c0-.1-.036-.184-.108-.241a.47.47 0 0 0-.299-.09.48.48 0 0 0-.281.075.297.297 0 0 0-.13.195h-.382a.568.568 0 0 1 .245-.43.965.965 0 0 1 .566-.154c.245 0 .436.058.573.173.134.115.202.281.202.497v.729c0 .086.04.13.123.13h.075Zm-.584-.483h-.483a.463.463 0 0 0-.277.072.237.237 0 0 0-.098.206c0 .08.03.144.09.191.062.05.145.072.253.072a.521.521 0 0 0 .375-.13.475.475 0 0 0 .14-.346v-.065Zm2.303-.843c.137.137.21.353.21.649v1.016h-.394v-.995a.645.645 0 0 0-.111-.4.404.404 0 0 0-.328-.137.442.442 0 0 0-.365.162c-.086.109-.13.253-.13.44v.93h-.389v-1.845h.34l.042.241c.138-.173.336-.263.592-.263.216 0 .396.068.533.202Zm1.987 1.507c-.151.122-.342.18-.573.18a.95.95 0 0 1-.483-.115.808.808 0 0 1-.324-.336 1.054 1.054 0 0 1-.112-.497 1 1 0 0 1 .115-.494.812.812 0 0 1 .325-.328.978.978 0 0 1 .49-.12c.23 0 .418.062.566.185a.803.803 0 0 1 .274.494h-.4a.476.476 0 0 0-.159-.253.464.464 0 0 0-.292-.093.47.47 0 0 0-.378.169.67.67 0 0 0-.14.44c0 .184.046.332.14.447a.46.46 0 0 0 .378.17c.12 0 .22-.03.3-.095a.457.457 0 0 0 .154-.259h.397a.799.799 0 0 1-.278.505Zm.602-1.258a.804.804 0 0 1 .317-.332.915.915 0 0 1 .469-.12c.176 0 .331.037.468.11a.82.82 0 0 1 .321.305.929.929 0 0 1 .112.613h-1.392v.022a.551.551 0 0 0 .152.382c.09.094.212.14.364.14.119 0 .22-.025.303-.082a.427.427 0 0 0 .162-.242h.39a.757.757 0 0 1-.275.462.833.833 0 0 1-.551.18c-.195 0-.36-.036-.505-.115a.817.817 0 0 1-.332-.332.99.99 0 0 1-.115-.494c0-.187.036-.353.112-.498Zm1.301.291a.476.476 0 0 0-.162-.313.507.507 0 0 0-.339-.115c-.13 0-.238.04-.332.118a.45.45 0 0 0-.158.31h.991ZM85.972 54.46a.868.868 0 1 1 .001-1.736.868.868 0 0 1 0 1.736Zm0-1.434a.568.568 0 1 0 .002 1.135.568.568 0 0 0-.002-1.136Z"/><path d="M85.972 55.399c-.753 0-1.464-.441-1.952-1.206-.213-.33-.213-.87 0-1.202.49-.765 1.201-1.205 1.952-1.205.751 0 1.462.44 1.951 1.205.212.33.212.87 0 1.202-.489.765-1.2 1.206-1.95 1.206Zm0-3.313c-.646 0-1.265.389-1.698 1.068-.15.234-.15.642 0 .877.433.679 1.052 1.067 1.698 1.067.647 0 1.266-.388 1.699-1.067.15-.235.15-.643 0-.877-.433-.68-1.052-1.068-1.699-1.068ZM59.15 61.527l-.807.281.555.584-.649.541-.504-.757-.505.75-.649-.548.555-.577-.8-.288.346-.757.67.367-.035-.771h.836l-.036.779.67-.368.354.764Zm4.901 0-.807.281.555.584-.65.541-.504-.757-.505.75-.648-.548.555-.577-.8-.288.346-.757.67.367-.036-.771h.836l-.036.779.67-.368.354.764Zm4.9 0-.807.281.555.584-.649.541-.504-.757-.505.75-.649-.548.555-.577-.8-.288.346-.757.67.367-.035-.771h.836l-.036.779.67-.368.354.764Zm4.901 0-.807.281.555.584-.65.541-.504-.757-.505.75-.648-.548.555-.577-.8-.288.346-.757.67.367-.036-.771h.836l-.036.779.67-.368.354.764Zm4.9 0-.807.281.555.584-.649.541-.504-.757-.505.75-.649-.548.555-.577-.8-.288.346-.757.67.367-.036-.771h.837l-.036.779.67-.368.353.764Zm4.901 0-.808.281.556.584-.65.541-.504-.757-.505.75-.648-.548.555-.577-.8-.288.345-.757.671.367-.036-.771h.836l-.036.779.67-.368.354.764Zm4.9 0-.807.281.555.584-.649.541-.505-.757-.504.75-.649-.548.555-.577-.8-.288.346-.757.67.367-.036-.771h.837l-.036.779.67-.368.353.764Z"/></g><rect width="32.444" height="13.218" x="112.042" y="52.541" fill="#fff" rx="1.502"/><path fill="#E86317" d="M121.565 59.4h-1.252v1.252a.25.25 0 0 1-.5 0V59.4h-1.252a.25.25 0 0 1 0-.5h1.252v-1.252a.25.25 0 0 1 .5 0V58.9h1.252a.25.25 0 0 1 0 .5ZM125.581 57.705h2.3v.43h-.908v2.514h-.484v-2.515h-.908v-.429Zm2.767 2.835a.945.945 0 0 1-.387-.387 1.178 1.178 0 0 1-.135-.58c0-.215.042-.404.135-.572a.954.954 0 0 1 .387-.391c.168-.093.357-.14.576-.14.214 0 .403.047.572.14a.967.967 0 0 1 .387.39c.092.169.138.358.138.573 0 .218-.046.412-.138.58a.957.957 0 0 1-.387.387 1.165 1.165 0 0 1-.572.135c-.219 0-.408-.042-.576-.135Zm1.034-.45a.756.756 0 0 0 .177-.517.745.745 0 0 0-.177-.513.579.579 0 0 0-.458-.202.568.568 0 0 0-.459.202.747.747 0 0 0-.172.513c0 .21.055.383.172.517a.565.565 0 0 0 .459.198c.189 0 .34-.063.458-.198Zm2.767-1.485a.944.944 0 0 1 .362.383c.084.168.13.362.13.585 0 .218-.046.412-.13.58a.983.983 0 0 1-.362.387 1.01 1.01 0 0 1-.526.135.919.919 0 0 1-.416-.089.714.714 0 0 1-.282-.24v1.145h-.454v-2.995h.395l.055.32a.84.84 0 0 1 .702-.345c.194 0 .37.046.526.134Zm-.147 1.485a.76.76 0 0 0 .176-.517.76.76 0 0 0-.176-.518.587.587 0 0 0-.455-.197.575.575 0 0 0-.454.197c-.118.13-.172.299-.172.51 0 .218.054.39.172.525a.565.565 0 0 0 .454.202.577.577 0 0 0 .455-.202Zm2.76-2.385v1.708c0 .278.055.488.164.627.11.138.278.206.509.206.232 0 .404-.068.513-.206.11-.14.169-.35.169-.627v-1.708h.483v1.683c0 .42-.101.74-.298.959-.198.218-.488.328-.867.328-.378 0-.668-.11-.862-.328-.198-.22-.294-.539-.294-.96v-1.682h.483Zm4.075.9a.93.93 0 0 1 .362.383c.084.168.13.362.13.585 0 .218-.046.412-.13.58a.969.969 0 0 1-.362.387 1.008 1.008 0 0 1-.526.135.922.922 0 0 1-.416-.089.72.72 0 0 1-.282-.24v1.145h-.454v-2.995h.395l.055.32a.841.841 0 0 1 .702-.345c.194 0 .371.046.526.134Zm-.147 1.485a.756.756 0 0 0 .177-.517.756.756 0 0 0-.177-.518.586.586 0 0 0-.454-.197.573.573 0 0 0-.454.197c-.118.13-.173.299-.173.51 0 .218.055.39.173.525a.563.563 0 0 0 .454.202.576.576 0 0 0 .454-.202Z"/></g><path fill="#E86317" d="m137.283 155.58 1.102-2.944h.576l1.098 2.944h-.517l-.278-.728h-1.207l-.273.728h-.501Zm.909-1.14h.938l-.471-1.283-.467 1.283Zm4.199-1.804v2.944h-.396l-.054-.324a.825.825 0 0 1-.703.349c-.197 0-.374-.042-.525-.131a.88.88 0 0 1-.362-.382 1.248 1.248 0 0 1-.131-.589c0-.219.043-.408.131-.576a.981.981 0 0 1 .887-.526c.156 0 .295.029.412.088a.778.778 0 0 1 .286.236v-1.089h.455Zm-.623 2.388a.753.753 0 0 0 .173-.513.776.776 0 0 0-.173-.521.575.575 0 0 0-.454-.202.562.562 0 0 0-.454.202.742.742 0 0 0-.173.513c0 .214.055.387.173.521a.56.56 0 0 0 .454.198.571.571 0 0 0 .454-.198Zm3.241-2.388v2.944h-.395l-.055-.324a.825.825 0 0 1-.702.349 1.02 1.02 0 0 1-.526-.131.88.88 0 0 1-.362-.382 1.248 1.248 0 0 1-.13-.589c0-.219.042-.408.13-.576a.982.982 0 0 1 .888-.526c.155 0 .294.029.412.088.117.059.21.135.286.236v-1.089h.454Zm-.623 2.388a.753.753 0 0 0 .173-.513.776.776 0 0 0-.173-.521.573.573 0 0 0-.454-.202.564.564 0 0 0-.454.202c-.118.134-.172.303-.172.513 0 .214.054.387.172.521a.56.56 0 0 0 .454.198.57.57 0 0 0 .454-.198ZM150.938 154.33h-1.252v1.252a.25.25 0 0 1-.501 0v-1.252h-1.251a.25.25 0 0 1-.251-.25.25.25 0 0 1 .251-.25h1.251v-1.252a.25.25 0 0 1 .501 0v1.252h1.252a.25.25 0 0 1 .25.25.25.25 0 0 1-.25.25Z"/><path fill="#131313" d="m48.994 155.926 1.26-3.365h.658l1.255 3.365h-.592l-.317-.832h-1.38l-.312.832h-.572Zm1.039-1.303h1.072l-.539-1.466-.533 1.466Zm4.798-1.158v2.36c0 .346-.106.615-.307.807-.207.193-.524.284-.952.284-.337 0-.606-.072-.812-.221a.805.805 0 0 1-.346-.635h.528c.03.14.106.246.221.322.116.077.265.111.447.111.471 0 .707-.226.707-.687v-.274c-.183.269-.447.403-.803.403-.226 0-.428-.048-.6-.149a1.029 1.029 0 0 1-.414-.432 1.388 1.388 0 0 1-.149-.668c0-.245.048-.462.149-.654a1.126 1.126 0 0 1 1.014-.596c.183 0 .346.038.48.111.136.076.241.177.328.302l.057-.384h.452Zm-.711 1.812a.852.852 0 0 0 .197-.582.887.887 0 0 0-.197-.591.658.658 0 0 0-.52-.231.656.656 0 0 0-.518.226c-.135.154-.197.346-.197.587 0 .24.062.437.197.586a.64.64 0 0 0 .519.226.666.666 0 0 0 .519-.221Zm3.233-1.687c.172.101.312.245.413.432.096.193.149.414.149.673 0 .25-.053.467-.15.659-.1.192-.24.336-.413.442-.177.106-.38.159-.6.159-.183 0-.342-.034-.476-.101a.859.859 0 0 1-.327-.284l-.063.356h-.451v-3.365h.519v1.269a.947.947 0 0 1 .798-.394c.22 0 .423.053.6.154Zm-.169 1.701c.135-.153.202-.351.202-.596a.852.852 0 0 0-.202-.586.658.658 0 0 0-.519-.231.656.656 0 0 0-.519.226c-.135.154-.197.346-.197.586 0 .246.062.443.197.597.13.153.303.23.52.23a.654.654 0 0 0 .518-.226Zm3.598.183v.452h-.274c-.163 0-.279-.034-.346-.101-.072-.067-.106-.164-.106-.293-.187.283-.456.423-.812.423-.279 0-.5-.063-.663-.193a.619.619 0 0 1-.25-.528c0-.25.086-.447.269-.582.178-.135.437-.207.783-.207h.62v-.149a.394.394 0 0 0-.144-.322.626.626 0 0 0-.399-.12.642.642 0 0 0-.375.101.396.396 0 0 0-.173.26h-.51a.755.755 0 0 1 .328-.572c.192-.135.442-.207.754-.207.327 0 .582.077.765.231.177.153.269.375.269.663v.971c0 .115.053.173.163.173h.101Zm-.778-.644h-.645a.621.621 0 0 0-.37.096.316.316 0 0 0-.13.274c0 .106.039.192.12.255.082.067.193.096.337.096.212 0 .38-.058.5-.173a.634.634 0 0 0 .188-.462v-.086Zm3.546-2.269v3.365h-.452l-.062-.37a.94.94 0 0 1-.803.399c-.226 0-.428-.048-.6-.149a1.015 1.015 0 0 1-.414-.438 1.417 1.417 0 0 1-.15-.673c0-.25.049-.466.15-.658a1.126 1.126 0 0 1 1.014-.601c.178 0 .336.034.471.101.135.067.24.154.327.269v-1.245h.519Zm-.711 2.73a.865.865 0 0 0 .197-.586.892.892 0 0 0-.197-.596.658.658 0 0 0-.52-.231.645.645 0 0 0-.519.231c-.134.154-.197.346-.197.586 0 .245.063.443.197.596a.64.64 0 0 0 .52.226.654.654 0 0 0 .519-.226Zm3.67.183v.452h-.274c-.164 0-.28-.034-.347-.101-.072-.067-.105-.164-.105-.293-.188.283-.457.423-.813.423-.278 0-.5-.063-.663-.193a.619.619 0 0 1-.25-.528c0-.25.087-.447.27-.582.177-.135.437-.207.783-.207h.62v-.149a.394.394 0 0 0-.144-.322.626.626 0 0 0-.4-.12.642.642 0 0 0-.374.101.395.395 0 0 0-.173.26h-.51a.755.755 0 0 1 .327-.572c.192-.135.442-.207.755-.207.327 0 .581.077.764.231.178.153.27.375.27.663v.971c0 .115.052.173.163.173h.1Zm-.78-.644h-.643a.621.621 0 0 0-.37.096.316.316 0 0 0-.13.274c0 .106.038.192.12.255.082.067.192.096.337.096.211 0 .38-.058.5-.173a.635.635 0 0 0 .187-.462v-.086Z"/><path stroke="#C1C1C1" stroke-opacity=".5" stroke-width=".15" d="M49.525 92.064h102.741M49.525 101.111h102.741M49.525 110.16h102.741M49.525 119.208h102.741M49.525 128.256h102.741M49.525 137.305h102.741M49.525 146.353h102.741"/><path fill="#131313" d="M50.6 124.914a.67.67 0 0 0 .253.505c.156.126.36.186.62.186.21 0 .384-.042.516-.132a.44.44 0 0 0 .204-.379.348.348 0 0 0-.114-.264.775.775 0 0 0-.313-.157 14.04 14.04 0 0 0-.618-.144 2.944 2.944 0 0 1-.697-.198 1.115 1.115 0 0 1-.463-.366c-.12-.163-.174-.379-.174-.649 0-.241.066-.463.198-.655.132-.193.319-.343.559-.451.24-.108.51-.168.81-.168.307 0 .584.06.83.174.246.114.439.27.583.469.144.204.216.426.222.679h-.883a.64.64 0 0 0-.228-.433.803.803 0 0 0-.523-.168c-.204 0-.36.042-.48.126a.413.413 0 0 0-.181.361c0 .114.036.204.108.264a.81.81 0 0 0 .307.15c.132.036.336.084.612.132.277.054.517.12.71.199.192.078.342.198.462.354.12.156.18.367.18.631 0 .258-.072.487-.21.691-.144.204-.337.36-.589.475a1.92 1.92 0 0 1-.841.174c-.336 0-.637-.06-.901-.181a1.433 1.433 0 0 1-.613-.51 1.246 1.246 0 0 1-.228-.727l.883.012Zm3.167-1.004c.132-.24.313-.42.547-.552.234-.133.505-.199.817-.199.313 0 .583.066.823.187.24.12.427.294.559.516a1.562 1.562 0 0 1 .186 1.07h-2.24v.024c.017.228.09.402.215.529.12.132.295.192.511.192a.79.79 0 0 0 .427-.108.531.531 0 0 0 .228-.331h.835a1.295 1.295 0 0 1-.234.553 1.285 1.285 0 0 1-.493.391 1.634 1.634 0 0 1-.703.138c-.348 0-.643-.06-.895-.193a1.303 1.303 0 0 1-.577-.546 1.702 1.702 0 0 1-.198-.835c0-.319.06-.595.192-.836Zm2.11.469a.674.674 0 0 0-.235-.433.729.729 0 0 0-.475-.156.696.696 0 0 0-.468.162.649.649 0 0 0-.223.427h1.4Zm1.43-2.301h.846v4.206h-.847v-4.206Zm1.63 1.832c.131-.24.312-.42.546-.552.234-.133.505-.199.817-.199.313 0 .583.066.823.187.24.12.427.294.559.516.132.223.204.481.21.781 0 .109-.012.205-.024.289h-2.24v.024c.017.228.09.402.215.529.12.132.295.192.511.192a.79.79 0 0 0 .427-.108.531.531 0 0 0 .228-.331h.835a1.294 1.294 0 0 1-.234.553 1.285 1.285 0 0 1-.493.391 1.634 1.634 0 0 1-.703.138c-.348 0-.643-.06-.895-.193a1.302 1.302 0 0 1-.577-.546 1.702 1.702 0 0 1-.198-.835c0-.319.06-.595.192-.836Zm2.108.469a.674.674 0 0 0-.234-.433.728.728 0 0 0-.475-.156.696.696 0 0 0-.469.162.65.65 0 0 0-.222.427h1.4Zm3.918 1.622c-.265.217-.601.319-1.016.319-.324 0-.6-.06-.84-.193a1.389 1.389 0 0 1-.56-.558 1.693 1.693 0 0 1-.192-.829c0-.313.06-.589.192-.83.133-.24.319-.42.56-.552.24-.133.522-.199.846-.199.409 0 .745.109 1.01.319.258.21.42.499.48.871h-.877a.65.65 0 0 0-.216-.36.613.613 0 0 0-.403-.139.646.646 0 0 0-.528.247c-.133.168-.199.378-.199.643 0 .264.066.48.199.642a.63.63 0 0 0 .528.247c.163 0 .3-.042.409-.138a.666.666 0 0 0 .216-.379h.871c-.06.379-.216.673-.48.889Zm1.257-2.091h-.51v-.715h.51v-.865h.847v.865h.704v.715h-.704v1.352c0 .108.019.187.067.235.048.048.126.072.234.072h.439v.715h-.703c-.59 0-.884-.295-.884-.884v-1.49Zm4.275-.715.751 2.217.733-2.217h.907l-1.37 3.527a3.207 3.207 0 0 1-.204.445.671.671 0 0 1-.246.24.771.771 0 0 1-.379.078h-.823v-.715h.469c.108 0 .186-.018.234-.054a.524.524 0 0 0 .139-.21l.078-.204-1.19-3.107h.901Zm3.33 2.932a1.381 1.381 0 0 1-.57-.558 1.695 1.695 0 0 1-.198-.829c0-.313.066-.589.198-.83.132-.24.325-.42.57-.552.247-.133.536-.199.86-.199.325 0 .607.066.853.199.247.132.439.312.571.552a1.7 1.7 0 0 1 .204.83c0 .318-.072.594-.204.835-.132.24-.324.42-.57.552a1.76 1.76 0 0 1-.854.193c-.324 0-.613-.06-.86-.193Zm1.419-.745c.138-.162.21-.378.21-.642a.972.972 0 0 0-.21-.643.697.697 0 0 0-.559-.247.697.697 0 0 0-.559.247c-.138.168-.204.378-.204.643 0 .264.066.48.204.642.138.169.325.247.56.247.233 0 .42-.078.558-.247Zm4.564-2.187v3.089h-.751l-.078-.373a1.15 1.15 0 0 1-.379.301 1.187 1.187 0 0 1-.529.108c-.36 0-.654-.108-.883-.331-.228-.222-.342-.595-.342-1.117v-1.677h.847v1.575c0 .282.048.492.144.636.096.145.252.211.457.211.21 0 .372-.078.492-.235.114-.156.175-.378.175-.666v-1.521h.847Zm2.59 0v.77h-.337c-.24 0-.42.072-.529.216-.114.144-.168.342-.168.589v1.514h-.847v-3.089h.769l.078.463a.935.935 0 0 1 .343-.342c.132-.078.318-.121.546-.121h.144Zm2.109-1.117h.847v4.206h-.847v-4.206Zm4.597 3.491v.715h-.432c-.39 0-.583-.169-.571-.505-.114.18-.252.312-.415.403a1.178 1.178 0 0 1-.594.138c-.349 0-.625-.078-.835-.235-.21-.156-.313-.384-.313-.673 0-.324.12-.576.36-.757.24-.18.595-.27 1.058-.27h.613v-.15a.41.41 0 0 0-.156-.331.662.662 0 0 0-.42-.126.678.678 0 0 0-.386.102.407.407 0 0 0-.18.277h-.817a.94.94 0 0 1 .42-.733c.253-.174.584-.265 1.004-.265.433 0 .77.097 1.01.289.24.192.36.474.36.835v1.087c0 .079.012.133.048.157.03.03.078.042.15.042h.096Zm-1.13-.619h-.618c-.18 0-.318.036-.415.108a.345.345 0 0 0-.144.294c0 .109.036.199.12.259a.522.522 0 0 0 .337.096c.216 0 .39-.06.523-.186a.72.72 0 0 0 .198-.511v-.06Zm4.486-1.755v3.089h-.75l-.079-.373a1.15 1.15 0 0 1-.378.301 1.187 1.187 0 0 1-.53.108c-.36 0-.654-.108-.882-.331-.229-.222-.343-.595-.343-1.117v-1.677h.847v1.575c0 .282.049.492.145.636.096.145.252.211.456.211.21 0 .373-.078.493-.235.114-.156.174-.378.174-.666v-1.521h.847Zm3.371.301c.228.228.349.595.349 1.111v1.677h-.848v-1.629c0-.528-.21-.799-.624-.799a.627.627 0 0 0-.511.223c-.12.15-.18.36-.18.625v1.58h-.847v-3.089h.739l.078.385c.108-.132.234-.234.39-.306a1.28 1.28 0 0 1 .565-.115c.36 0 .655.115.89.337Zm4.09-1.418v4.206h-.738l-.084-.427c-.24.313-.56.463-.962.463-.276 0-.516-.06-.733-.193a1.353 1.353 0 0 1-.51-.558 1.842 1.842 0 0 1-.18-.835c0-.313.06-.583.18-.824.12-.24.294-.42.51-.552.217-.133.463-.199.74-.199.396 0 .708.145.93.421v-1.502h.848Zm-1.039 3.31c.132-.162.205-.378.205-.642a1.02 1.02 0 0 0-.205-.649.68.68 0 0 0-.546-.247.693.693 0 0 0-.553.247c-.138.168-.204.378-.204.643 0 .264.066.48.204.642a.675.675 0 0 0 .553.247.676.676 0 0 0 .546-.241Zm3.631-2.193v.77h-.336c-.241 0-.421.072-.529.216-.114.144-.168.342-.168.589v1.514h-.847v-3.089h.769l.078.463a.934.934 0 0 1 .342-.342c.132-.078.319-.121.547-.121h.144Zm1.146 0 .751 2.217.733-2.217h.908l-1.37 3.527a3.212 3.212 0 0 1-.204.445.681.681 0 0 1-.247.24.77.77 0 0 1-.378.078h-.823v-.715h.468c.108 0 .186-.018.235-.054a.523.523 0 0 0 .138-.21l.078-.204-1.19-3.107h.901Z"/><g clip-path="url(#i)"><path fill="#fff" d="M41.746 134.704h109.951v9.605H41.746z"/><rect width="9.807" height="9.605" x="48.956" y="134.704" fill="#E86317" rx="1.502"/><path fill="#fff" d="M53.836 140.506h-.316l-.218-.643h-.911l-.219.643h-.297l.714-2.104h.532l.715 2.104Zm-1.127-1.577-.23.679h.738l-.23-.679-.139-.421-.139.421Zm1.979 1.367h.129v.21a.548.548 0 0 1-.183.029.4.4 0 0 1-.301-.117.425.425 0 0 1-.114-.311v-1.869h.291v1.835c0 .169.044.223.178.223Zm1.01 0h.13v.21a.548.548 0 0 1-.184.029.401.401 0 0 1-.3-.117.425.425 0 0 1-.115-.311v-1.869h.292v1.835c0 .169.044.223.178.223Z"/><path fill="#111" d="M66.536 140.249c-.19-.201-.283-.466-.283-.795 0-.328.094-.594.283-.795.188-.201.435-.301.743-.301.259 0 .477.069.656.209.178.139.267.33.267.572h-.315c0-.357-.184-.511-.608-.511-.25 0-.43.065-.542.195-.113.131-.169.341-.169.631 0 .291.057.502.17.632.113.131.293.197.541.197.424 0 .608-.144.608-.477h.315c0 .236-.088.42-.266.55a1.074 1.074 0 0 1-.657.195c-.308 0-.555-.101-.743-.302Zm3.394.079a.741.741 0 0 1-.562.223.74.74 0 0 1-.562-.223c-.142-.148-.214-.343-.214-.588 0-.245.072-.441.214-.59a.742.742 0 0 1 .562-.221c.232 0 .42.073.562.221.142.149.213.345.213.59s-.07.44-.213.588Zm-.92-.148c.074.091.192.137.357.137.164 0 .283-.046.358-.137.074-.091.111-.237.111-.44 0-.202-.037-.349-.111-.44-.075-.091-.194-.136-.358-.136-.165 0-.283.045-.357.136-.075.091-.111.238-.111.44 0 .203.036.349.111.44Zm2.43-1.251c.053 0 .098.01.131.029v.241h-.168a.451.451 0 0 0-.329.122.439.439 0 0 0-.125.331v.854h-.292v-1.532h.28v.342c.1-.24.28-.387.502-.387Zm1.343 0c.214 0 .386.073.513.221.128.149.192.345.192.59s-.064.44-.192.588a.642.642 0 0 1-.513.223c-.248 0-.428-.095-.538-.286v.797h-.292v-2.088h.28v.3a.57.57 0 0 1 .55-.345Zm-.427 1.251c.075.091.194.137.358.137.163 0 .282-.046.356-.137.075-.091.112-.237.112-.44 0-.202-.037-.349-.112-.44-.074-.091-.193-.136-.356-.136-.164 0-.283.045-.358.136-.075.091-.111.238-.111.44 0 .203.036.349.111.44Zm2.891.148a.741.741 0 0 1-.562.223.74.74 0 0 1-.561-.223c-.143-.148-.215-.343-.215-.588 0-.245.072-.441.215-.59a.742.742 0 0 1 .561-.221c.232 0 .42.073.562.221.142.149.213.345.213.59s-.07.44-.213.588Zm-.92-.148c.074.091.192.137.357.137.164 0 .283-.046.358-.137.075-.091.111-.237.111-.44 0-.202-.036-.349-.111-.44-.075-.091-.194-.136-.358-.136-.165 0-.283.045-.357.136-.074.091-.111.238-.111.44 0 .203.037.349.111.44Zm2.43-1.251c.054 0 .098.01.131.029v.241h-.168a.451.451 0 0 0-.329.122.439.439 0 0 0-.125.331v.854h-.291v-1.532h.28v.342c.1-.24.28-.387.501-.387Zm1.875 1.373h.003v.204a.895.895 0 0 1-.215.029c-.188 0-.266-.1-.27-.345-.088.222-.288.361-.581.361a.515.515 0 0 1-.337-.105.343.343 0 0 1-.128-.276c0-.104.032-.188.097-.254.063-.066.176-.116.339-.149.318-.066.519-.113.601-.138v-.006c0-.333-.107-.475-.355-.475s-.355.117-.355.403h-.29c0-.186.058-.336.177-.45a.638.638 0 0 1 .468-.172c.412 0 .643.224.643.622v.568c0 .08.011.13.035.151.022.022.079.032.168.032Zm-.993.018c.31 0 .502-.147.502-.451v-.066c-.048.016-.21.056-.487.121a.432.432 0 0 0-.195.08.183.183 0 0 0-.048.135c0 .12.076.181.228.181Zm2.017-.024H80v.21a2.663 2.663 0 0 1-.372.029.544.544 0 0 1-.378-.13.437.437 0 0 1-.146-.341v-.856h-.312v-.234h.312l.01-.454h.282v.454h.599v.234h-.599v.799c0 .11.02.186.057.227.038.042.106.062.204.062Zm2.035-.673v.177h-1.156c.016.36.148.517.453.517.276 0 .393-.083.393-.283h.301a.446.446 0 0 1-.19.374c-.128.095-.296.143-.504.143a.717.717 0 0 1-.55-.223c-.14-.148-.21-.343-.21-.588 0-.245.07-.441.21-.59a.72.72 0 0 1 .55-.221c.21 0 .38.063.51.191.128.127.193.295.193.503Zm-1.15-.021.355-.007h.494c-.012-.305-.133-.431-.402-.431-.28 0-.42.133-.447.438ZM93.39 139.858v-1.456h.307v2.104h-.518l-.95-1.941.016.405v1.536h-.306v-2.104h.526l.94 1.926-.015-.47Zm2.38.444h.004v.204a.896.896 0 0 1-.216.029c-.188 0-.265-.1-.27-.345-.088.222-.287.361-.58.361a.515.515 0 0 1-.338-.105.343.343 0 0 1-.128-.276c0-.104.033-.188.097-.254.063-.066.176-.116.339-.149.318-.066.52-.113.601-.138v-.006c0-.333-.107-.475-.355-.475s-.355.117-.355.403h-.29c0-.186.059-.336.178-.45a.639.639 0 0 1 .467-.172c.413 0 .643.224.643.622v.568c0 .08.012.13.035.151.022.022.08.032.169.032Zm-.992.018c.31 0 .501-.147.501-.451v-.066c-.048.016-.21.056-.487.121a.433.433 0 0 0-.195.08.183.183 0 0 0-.048.135c0 .12.076.181.229.181Zm2.017-.024h.343v.21a2.665 2.665 0 0 1-.373.029.544.544 0 0 1-.378-.13.437.437 0 0 1-.145-.341v-.856h-.313v-.234h.313l.01-.454h.282v.454h.598v.234h-.599v.799c0 .11.02.186.058.227.038.042.105.062.204.062Zm.708-1.662v-.336h.321v.336h-.32Zm.015 1.872v-1.532h.292v1.532h-.292Zm1.481-.405.402-1.127h.29l-.557 1.532h-.457l-.555-1.532h.3l.403 1.127.086.273.088-.273Zm2.397-.478v.177h-1.156c.016.36.148.517.453.517.276 0 .393-.083.393-.283h.301a.445.445 0 0 1-.191.374c-.127.095-.294.143-.503.143a.719.719 0 0 1-.55-.223c-.139-.148-.21-.343-.21-.588 0-.245.071-.441.21-.59a.721.721 0 0 1 .55-.221c.21 0 .38.063.509.191a.675.675 0 0 1 .194.503Zm-1.15-.021.355-.007h.494c-.011-.305-.133-.431-.402-.431-.28 0-.419.133-.447.438ZM111.833 140.249c-.19-.201-.284-.466-.284-.795 0-.328.094-.594.284-.795.187-.201.435-.301.743-.301.258 0 .477.069.656.209a.69.69 0 0 1 .267.572h-.315c0-.357-.184-.511-.608-.511-.251 0-.431.065-.542.195-.113.131-.169.341-.169.631 0 .291.057.502.17.632.113.131.293.197.541.197.424 0 .608-.144.608-.477h.315c0 .236-.088.42-.266.55a1.073 1.073 0 0 1-.657.195c-.308 0-.556-.101-.743-.302Zm3.59.053h.003v.204a.892.892 0 0 1-.215.029c-.188 0-.266-.1-.27-.345-.088.222-.288.361-.581.361a.515.515 0 0 1-.337-.105.34.34 0 0 1-.128-.276c0-.104.032-.188.097-.254.063-.066.176-.116.339-.149.318-.066.519-.113.601-.138v-.006c0-.333-.107-.475-.355-.475s-.355.117-.355.403h-.29c0-.186.058-.336.177-.45a.638.638 0 0 1 .468-.172c.412 0 .642.224.642.622v.568c0 .08.012.13.036.151.022.022.079.032.168.032Zm-.993.018c.31 0 .502-.147.502-.451v-.066c-.048.016-.21.056-.487.121a.432.432 0 0 0-.195.08.185.185 0 0 0-.049.135c0 .12.077.181.229.181Zm1.973.231c-.215 0-.389-.048-.519-.146a.46.46 0 0 1-.197-.389h.301c0 .221.125.315.418.315.241 0 .361-.069.36-.207a.183.183 0 0 0-.087-.156c-.057-.04-.179-.078-.364-.113-.202-.04-.349-.096-.441-.168a.348.348 0 0 1-.138-.293c0-.139.057-.252.171-.337a.737.737 0 0 1 .454-.128c.202 0 .363.048.484.145.12.097.18.226.18.386h-.301c0-.217-.11-.312-.366-.312-.228 0-.342.071-.344.217 0 .066.03.117.088.151.058.035.181.07.37.107.207.039.355.097.445.171a.382.382 0 0 1 .135.307.379.379 0 0 1-.178.327.815.815 0 0 1-.471.123Zm2.208-.664v-.913h.292v1.532h-.281v-.279a.623.623 0 0 1-.576.324.526.526 0 0 1-.4-.158.564.564 0 0 1-.153-.412v-1.007h.292v.886c0 .166.028.282.085.347.056.066.155.098.299.098a.45.45 0 0 0 .321-.113.397.397 0 0 0 .121-.305Zm2.338.415h.003v.204a.893.893 0 0 1-.216.029c-.188 0-.265-.1-.27-.345-.088.222-.287.361-.581.361a.515.515 0 0 1-.337-.105.343.343 0 0 1-.128-.276.35.35 0 0 1 .097-.254c.063-.066.176-.116.339-.149.318-.066.519-.113.601-.138v-.006c0-.333-.107-.475-.355-.475-.247 0-.355.117-.355.403h-.29c0-.186.059-.336.178-.45a.636.636 0 0 1 .467-.172c.413 0 .643.224.643.622v.568c0 .08.012.13.035.151.022.022.079.032.169.032Zm-.993.018c.309 0 .501-.147.501-.451v-.066a9.31 9.31 0 0 1-.487.121.437.437 0 0 0-.195.08.184.184 0 0 0-.048.135c0 .12.076.181.229.181Zm1.867-.024h.129v.21a.545.545 0 0 1-.183.029.4.4 0 0 1-.301-.117.425.425 0 0 1-.114-.311v-1.869h.292v1.835c0 .169.044.223.177.223ZM133.954 140.249c-.192.201-.443.302-.756.302-.312 0-.564-.101-.755-.302-.192-.201-.288-.466-.288-.795 0-.328.096-.594.288-.795.191-.201.443-.301.755-.301.313 0 .564.1.756.301.19.201.286.467.286.795 0 .329-.096.594-.286.795Zm-1.31-.166c.114.131.299.197.554.197.254 0 .439-.066.555-.197.114-.13.171-.34.171-.629 0-.29-.057-.5-.171-.631-.116-.13-.301-.195-.555-.195-.255 0-.44.065-.554.195-.116.131-.173.341-.173.631 0 .289.057.499.173.629Zm2.732.213h.344v.21a2.67 2.67 0 0 1-.373.029.542.542 0 0 1-.378-.13.437.437 0 0 1-.146-.341v-.856h-.312v-.234h.312l.011-.454h.281v.454h.599v.234h-.599v.799c0 .11.019.186.058.227.038.042.105.062.203.062Zm1.577-1.367c.176 0 .319.053.426.157.107.106.16.243.16.414v1.006h-.291v-.886c0-.166-.028-.282-.083-.348-.058-.064-.157-.097-.301-.097a.48.48 0 0 0-.342.121.423.423 0 0 0-.131.327v.883h-.291v-2.268h.291v1.024a.613.613 0 0 1 .562-.333Zm2.554.694v.177h-1.156c.016.36.148.517.453.517.276 0 .394-.083.394-.283h.3a.447.447 0 0 1-.19.374c-.128.095-.295.143-.504.143a.719.719 0 0 1-.55-.223c-.139-.148-.209-.343-.209-.588 0-.245.07-.441.209-.59a.721.721 0 0 1 .55-.221c.21 0 .38.063.509.191a.675.675 0 0 1 .194.503Zm-1.15-.021.355-.007h.494c-.011-.305-.133-.431-.402-.431-.28 0-.419.133-.447.438Zm2.45-.673c.054 0 .098.01.132.029v.241h-.169a.452.452 0 0 0-.329.122.44.44 0 0 0-.124.331v.854h-.292v-1.532h.28v.342c.1-.24.28-.387.502-.387Zm1.059 1.622c-.216 0-.389-.048-.52-.146a.461.461 0 0 1-.196-.389h.3c0 .221.125.315.419.315.24 0 .36-.069.359-.207a.18.18 0 0 0-.087-.156c-.057-.04-.179-.078-.363-.113-.203-.04-.35-.096-.442-.168a.35.35 0 0 1-.138-.293.4.4 0 0 1 .172-.337.736.736 0 0 1 .453-.128c.202 0 .364.048.484.145.12.097.181.226.181.386h-.301c0-.217-.11-.312-.367-.312-.227 0-.342.071-.343.217 0 .066.029.117.088.151.057.035.18.07.37.107.206.039.355.097.444.171a.382.382 0 0 1 .135.307.379.379 0 0 1-.178.327.81.81 0 0 1-.47.123Z"/></g><g clip-path="url(#j)"><rect width="102.741" height="30.041" x="49.755" y="79.127" fill="#E86317" rx="1.502"/><path fill="url(#k)" fill-opacity=".2" d="M141.056 119.766c-3.146-.4-6.271-2.761-7.846-3.896-2.769-1.994-5.225-4.05-8.22-5.998-2.994-1.947-6.614-3.817-11.086-5.145-4.468-1.327-9.894-2.053-14.302-1.56-3.388.379-5.86 1.412-8.298 2.39-3.437 1.38-7.059 2.712-11.47 3.543-4.411.832-9.73 1.131-15.062.415-5.813-.781-11.101-2.693-15.17-4.858-1.072-.569-2.113-1.197-2.41-1.859-.215-.483-.014-.938.188-1.379l4.777-10.474c.057-.128.142-.27.424-.311.233-.033.522.015.786.063l93.495 16.827c-.962 2.048-1.929 4.099-2.896 6.151-.94 1.994-1.431 4.209-2.91 6.091Z"/><path fill="url(#l)" fill-opacity=".25" d="M257.601 115.439c-7.008-.927-13.97-6.394-17.479-9.023-6.171-4.619-11.643-9.38-18.316-13.891-6.672-4.511-14.736-8.843-24.7-11.917-9.956-3.074-22.044-4.755-31.867-3.613-7.548.877-13.054 3.27-18.487 5.535-7.659 3.195-15.728 6.28-25.556 8.206-9.828 1.926-21.68 2.62-33.56.962-12.95-1.81-24.733-6.238-33.798-11.252-2.388-1.32-4.708-2.773-5.368-4.306-.482-1.12-.034-2.172.416-3.195L59.53 48.688c.128-.298.317-.628.945-.722.518-.075 1.162.035 1.752.145l208.312 38.974a11636.04 11636.04 0 0 1-6.454 14.246c-2.095 4.62-3.188 9.749-6.484 14.108Z"/><path fill="#fff" d="M54.657 86.182h2.702v.75h-.909v2.615h-.884v-2.615h-.909v-.75Zm5.348 1.125c.188.183.284.486.284.913v1.327h-.832v-1.293c0-.183-.033-.317-.1-.413-.068-.092-.169-.14-.308-.14a.41.41 0 0 0-.337.144c-.077.097-.115.236-.115.409v1.293h-.832v-3.365h.832v1.14a.832.832 0 0 1 .288-.212c.11-.048.245-.072.404-.072.288 0 .524.091.716.269Zm.824.332c.106-.193.26-.337.452-.442.192-.106.418-.16.678-.16.26 0 .49.054.692.15.202.1.356.24.471.423.11.183.168.39.168.625 0 .105-.01.192-.024.269h-1.73v.01c.038.307.202.46.48.46.236 0 .38-.09.428-.273h.817a.953.953 0 0 1-.187.442c-.1.135-.235.24-.408.317-.174.077-.37.116-.592.116-.293 0-.543-.048-.754-.154a1.076 1.076 0 0 1-.486-.438 1.288 1.288 0 0 1-.163-.668c0-.26.053-.485.158-.677Zm1.64.355a.439.439 0 0 0-.16-.269.49.49 0 0 0-.307-.096.485.485 0 0 0-.312.096.424.424 0 0 0-.145.27h.923Zm7.148.822v.73h-.37a.772.772 0 0 1-.313-.047.529.529 0 0 1-.201-.159c-.27.159-.572.236-.904.236-.337 0-.63-.072-.89-.221a1.573 1.573 0 0 1-.6-.616 1.76 1.76 0 0 1-.212-.874c0-.322.068-.616.212-.875a1.56 1.56 0 0 1 .6-.61c.26-.15.553-.227.89-.227.332 0 .625.077.884.226.26.15.457.351.601.61.144.26.216.553.216.876 0 .36-.086.677-.26.951h.347Zm-2.37-.245a.707.707 0 0 0 .582.274.711.711 0 0 0 .404-.115l-.02-.02a1.078 1.078 0 0 0-.105-.105.201.201 0 0 0-.11-.034h-.328v-.726h.375c.096 0 .178.015.24.034.058.02.106.048.145.077a1.9 1.9 0 0 1 .125.135l.043.052c.02-.086.029-.177.029-.278 0-.284-.077-.52-.221-.702a.702.702 0 0 0-.577-.279.711.711 0 0 0-.582.279c-.144.183-.216.418-.216.702 0 .288.072.523.216.706Zm5.204-1.504v2.48h-.74l-.063-.284a.926.926 0 0 1-.303.236.931.931 0 0 1-.403.077c-.289 0-.524-.087-.707-.265-.188-.178-.279-.485-.279-.918v-1.326h.832v1.21c0 .212.029.371.091.472.058.106.159.154.303.154a.38.38 0 0 0 .322-.159c.077-.106.115-.264.115-.466v-1.211h.832Zm3.036 1.797v.683h-.418c-.164 0-.284-.034-.356-.101-.077-.067-.11-.163-.11-.284v-.019a1.02 1.02 0 0 1-.332.327.935.935 0 0 1-.462.106c-.278 0-.504-.063-.677-.188-.174-.125-.255-.307-.255-.543 0-.27.1-.48.312-.63.207-.144.51-.22.904-.22h.365v-.097a.253.253 0 0 0-.105-.206.428.428 0 0 0-.27-.082.456.456 0 0 0-.254.067.213.213 0 0 0-.106.173h-.798c.02-.26.14-.456.35-.6.212-.14.491-.212.847-.212.365 0 .653.077.855.23.202.154.303.38.303.678v.77c0 .057.01.1.034.12.024.019.062.028.12.028h.053Zm-1.029-.355h-.35a.49.49 0 0 0-.29.077.225.225 0 0 0-.105.197c0 .067.024.125.072.163a.316.316 0 0 0 .202.058c.14 0 .25-.044.337-.13a.506.506 0 0 0 .134-.356v-.01Zm1.367-2.327h.831v3.365h-.832v-3.365Zm2.108-.062a.447.447 0 0 1 .135.322.44.44 0 0 1-.135.322.465.465 0 0 1-.332.13.449.449 0 0 1-.331-.13.421.421 0 0 1-.135-.322c0-.125.043-.236.135-.322a.449.449 0 0 1 .332-.13c.13 0 .24.043.331.13Zm-.75.947h.832v2.48h-.832v-2.48Zm1.513.687h-.39v-.687h.39v-.697h.832v.697h.533v.687h-.534v.88c0 .081.015.139.053.173.034.038.092.052.173.052h.308v.688h-.62c-.24 0-.423-.063-.553-.188-.13-.125-.192-.312-.192-.557v-1.048Zm2.394-.687.519 1.648.514-1.648h.89l-1.078 2.797a1.872 1.872 0 0 1-.173.365.58.58 0 0 1-.211.207.652.652 0 0 1-.322.072h-.76v-.687h.39c.077 0 .134-.01.173-.034.038-.019.067-.067.091-.134l.034-.092-.952-2.494h.885Zm-26.553 6.115h1.034l.625 1.226.677-1.226h.98l-1.215 2.115v1.25h-.885v-1.25l-1.216-2.115Zm3.729 3.24a1.142 1.142 0 0 1-.471-.447 1.312 1.312 0 0 1-.163-.668c0-.25.052-.476.163-.668.11-.193.27-.337.471-.442.202-.106.442-.16.716-.16.27 0 .51.054.712.16.201.105.36.25.47.442.111.192.169.418.169.668 0 .254-.058.476-.168.668-.111.192-.27.341-.471.447a1.521 1.521 0 0 1-.712.154c-.274 0-.514-.048-.716-.154Zm1.086-.673a.703.703 0 0 0 .135-.442.688.688 0 0 0-.135-.438.46.46 0 0 0-.37-.168.446.446 0 0 0-.37.168c-.091.11-.135.255-.135.438 0 .182.044.331.135.442.087.11.212.163.37.163a.456.456 0 0 0 .37-.163Zm3.857-1.682v2.48h-.74l-.063-.284a.925.925 0 0 1-.303.236.93.93 0 0 1-.403.077c-.289 0-.524-.087-.707-.265-.188-.178-.279-.485-.279-.918v-1.326h.832v1.21c0 .212.029.371.091.472.058.106.159.154.303.154a.38.38 0 0 0 .322-.159c.077-.106.115-.264.115-.466v-1.211h.832Zm1.888-.106c.135-.255.327-.452.577-.596.25-.14.548-.212.894-.212.27 0 .514.058.73.164.212.11.385.264.515.457.125.192.202.413.221.663h-.884a.724.724 0 0 0-.217-.4.595.595 0 0 0-.413-.153.615.615 0 0 0-.534.27c-.125.182-.187.417-.187.71 0 .299.062.534.187.712.125.183.303.27.534.27a.591.591 0 0 0 .413-.15.72.72 0 0 0 .217-.404h.884c-.02.25-.096.476-.221.668-.13.193-.303.347-.514.452-.217.11-.462.164-.731.164-.346 0-.644-.068-.894-.212a1.408 1.408 0 0 1-.577-.596 1.913 1.913 0 0 1-.202-.903c0-.346.068-.644.202-.904Zm5.846 1.903v.683h-.418c-.163 0-.284-.034-.356-.101-.076-.067-.11-.163-.11-.284v-.019a1.021 1.021 0 0 1-.332.327.935.935 0 0 1-.461.106c-.279 0-.505-.063-.678-.188-.173-.125-.255-.307-.255-.543 0-.27.101-.48.313-.63.206-.144.51-.22.903-.22h.366v-.097a.253.253 0 0 0-.106-.206.428.428 0 0 0-.27-.082.456.456 0 0 0-.254.067.213.213 0 0 0-.106.173h-.798c.02-.26.14-.456.351-.6.212-.14.49-.212.846-.212.365 0 .654.077.856.23.202.154.303.38.303.678v.77c0 .057.01.1.033.12.024.019.063.028.12.028h.053Zm-1.028-.355h-.351a.49.49 0 0 0-.289.077.225.225 0 0 0-.105.197c0 .067.024.125.072.163a.316.316 0 0 0 .202.058c.139 0 .25-.044.336-.13a.506.506 0 0 0 .135-.356v-.01Zm3.606-1.202c.187.178.284.48.284.913v1.327h-.832v-1.284c0-.187-.034-.326-.096-.422-.067-.092-.168-.14-.313-.14a.41.41 0 0 0-.336.144c-.077.097-.115.236-.115.418v1.284h-.832v-2.48h.73l.063.298a.877.877 0 0 1 .308-.24.963.963 0 0 1 .432-.087c.284 0 .52.091.707.269Zm1.897-1.125h2.701v.75h-.908v2.615h-.885v-2.615h-.908v-.75Zm4.564.885v.735h-.312c-.337 0-.505.188-.505.553v1.192h-.832v-2.48h.765l.067.365a.748.748 0 0 1 .274-.274.89.89 0 0 1 .423-.091h.12Zm2.81 0v2.48h-.741l-.063-.284a.927.927 0 0 1-.302.236.931.931 0 0 1-.404.077c-.288 0-.524-.087-.707-.265-.187-.178-.278-.485-.278-.918v-1.326h.831v1.21c0 .212.029.371.091.472.058.106.159.154.303.154a.38.38 0 0 0 .322-.159c.077-.106.116-.264.116-.466v-1.211h.831ZM84 95.715a.305.305 0 0 0 .144.217.515.515 0 0 0 .308.081.65.65 0 0 0 .297-.053c.068-.033.106-.086.106-.163a.128.128 0 0 0-.048-.1.358.358 0 0 0-.144-.049c-.067-.01-.178-.029-.341-.053-.346-.038-.606-.11-.784-.216-.178-.101-.264-.27-.264-.505 0-.255.1-.461.303-.615.202-.154.475-.23.817-.23.36 0 .654.076.88.22a.728.728 0 0 1 .355.592h-.779c-.01-.073-.048-.13-.124-.178a.558.558 0 0 0-.299-.072.558.558 0 0 0-.264.053c-.067.038-.096.086-.096.153 0 .058.029.096.096.116.063.019.178.038.351.053l.096.01c.332.038.591.11.774.215.183.106.279.289.279.548a.701.701 0 0 1-.15.443.956.956 0 0 1-.422.293c-.183.067-.39.1-.63.1-.36 0-.654-.076-.875-.23a.78.78 0 0 1-.36-.63H84Zm2.266-.961h-.39v-.687h.39v-.697h.832v.697h.533v.687H87.1v.88c0 .081.014.139.052.173.034.038.092.052.174.052h.307v.688h-.62c-.24 0-.423-.063-.553-.188-.13-.125-.192-.312-.192-.557v-1.048ZM54.636 100.646h1.626v.24h-.682v1.863h-.262v-1.863h-.681v-.24Zm2.584.57v.241h-.123c-.147 0-.252.051-.315.147a.66.66 0 0 0-.094.363v.782h-.246v-1.533h.213l.033.232a.484.484 0 0 1 .172-.168.55.55 0 0 1 .291-.064h.07Zm.438 0 .472 1.25.457-1.25h.261l-.706 1.791c-.036.093-.07.162-.096.207a.262.262 0 0 1-.105.102.343.343 0 0 1-.169.033h-.294v-.225h.22a.259.259 0 0 0 .108-.015.11.11 0 0 0 .057-.048c.015-.024.033-.063.057-.117l.078-.183-.601-1.545h.261Zm2.376-.573h.262v.916h1.087v-.916h.261v2.106h-.26v-.95h-1.088v.95h-.262v-2.106Zm2.382 2.024a.677.677 0 0 1-.267-.276.813.813 0 0 1-.096-.409c0-.153.03-.288.096-.408a.695.695 0 0 1 .267-.276.768.768 0 0 1 .397-.1c.147 0 .28.033.393.1a.724.724 0 0 1 .27.276c.064.12.097.255.097.408a.845.845 0 0 1-.096.409.703.703 0 0 1-.27.276.765.765 0 0 1-.394.1.768.768 0 0 1-.397-.1Zm.661-.192a.469.469 0 0 0 .18-.201.648.648 0 0 0 .063-.292.656.656 0 0 0-.063-.291.487.487 0 0 0-.444-.273.496.496 0 0 0-.268.072.48.48 0 0 0-.177.201.656.656 0 0 0-.063.291c0 .109.021.208.063.292.042.087.1.153.177.201a.496.496 0 0 0 .268.072c.099 0 .186-.024.264-.072Zm2.995-1.114c.108.108.162.276.162.504v.884h-.246v-.869a.53.53 0 0 0-.096-.339.326.326 0 0 0-.267-.117.368.368 0 0 0-.304.135.574.574 0 0 0-.108.369v.821h-.246v-.869a.53.53 0 0 0-.096-.339.338.338 0 0 0-.274-.117.352.352 0 0 0-.297.144.601.601 0 0 0-.108.372v.809h-.247v-1.533h.214l.033.211a.526.526 0 0 1 .447-.229c.109 0 .208.027.292.076.084.048.15.12.192.216.108-.192.285-.292.532-.292.17 0 .31.054.417.163Zm.605.21a.704.704 0 0 1 .637-.373c.138 0 .264.03.372.088.108.06.192.144.255.252.06.111.093.24.1.387 0 .024-.004.057-.007.106h-1.19v.021a.5.5 0 0 0 .14.36c.086.09.2.135.345.135a.479.479 0 0 0 .279-.081.396.396 0 0 0 .156-.231h.25a.64.64 0 0 1-.226.384.671.671 0 0 1-.441.148.771.771 0 0 1-.4-.097.676.676 0 0 1-.267-.276.865.865 0 0 1-.094-.412.9.9 0 0 1 .09-.411Zm1.108.255a.437.437 0 0 0-.147-.303.479.479 0 0 0-.322-.108.456.456 0 0 0-.456.411h.925Zm.843.235c.01.144.066.258.171.342a.604.604 0 0 0 .397.126.59.59 0 0 0 .348-.093.303.303 0 0 0 .136-.264.271.271 0 0 0-.076-.196.445.445 0 0 0-.189-.105 2.882 2.882 0 0 0-.312-.069 1.274 1.274 0 0 1-.502-.177c-.126-.081-.186-.213-.186-.4a.55.55 0 0 1 .09-.312.61.61 0 0 1 .252-.213.921.921 0 0 1 .376-.075c.147 0 .28.027.393.081a.657.657 0 0 1 .381.562h-.258a.45.45 0 0 0-.165-.295.571.571 0 0 0-.351-.111.55.55 0 0 0-.334.093.295.295 0 0 0-.123.255c0 .082.024.145.072.19a.463.463 0 0 0 .186.102c.076.024.18.045.313.066.21.036.378.096.505.18.126.084.189.216.189.4 0 .12-.033.228-.096.321a.597.597 0 0 1-.265.219.88.88 0 0 1-.387.079.942.942 0 0 1-.43-.088.663.663 0 0 1-.285-.249.757.757 0 0 1-.108-.369h.258Zm1.735-.49a.704.704 0 0 1 .637-.373c.138 0 .264.03.372.088.108.06.192.144.255.252.06.111.094.24.1.387 0 .024-.003.057-.007.106h-1.19v.021a.5.5 0 0 0 .14.36c.086.09.2.135.345.135a.48.48 0 0 0 .279-.081.397.397 0 0 0 .156-.231h.25a.64.64 0 0 1-.226.384.671.671 0 0 1-.441.148.77.77 0 0 1-.4-.097.677.677 0 0 1-.267-.276.865.865 0 0 1-.093-.412.9.9 0 0 1 .09-.411Zm1.108.255a.437.437 0 0 0-.147-.303.479.479 0 0 0-.321-.108.457.457 0 0 0-.457.411h.925Zm1.405-.61v.241h-.123c-.147 0-.253.051-.316.147a.66.66 0 0 0-.093.363v.782h-.246v-1.533h.213l.033.232a.484.484 0 0 1 .171-.168.55.55 0 0 1 .292-.064h.069Zm.177 0h.264l.463 1.253.46-1.253h.258l-.574 1.533h-.298l-.573-1.533Zm1.956-.546c.03.03.045.069.045.114a.151.151 0 0 1-.045.114.156.156 0 0 1-.114.045.152.152 0 0 1-.114-.045.151.151 0 0 1-.045-.114c0-.045.015-.084.045-.114a.152.152 0 0 1 .114-.045c.045 0 .084.015.114.045Zm-.237.546h.246v1.533h-.246v-1.533Zm1.815 1.406a.7.7 0 0 1-.45.145.74.74 0 0 1-.391-.1.644.644 0 0 1-.261-.276.865.865 0 0 1-.094-.412.86.86 0 0 1 .094-.408.688.688 0 0 1 .267-.273.758.758 0 0 1 .394-.1c.18 0 .327.048.444.145a.639.639 0 0 1 .222.396h-.249a.424.424 0 0 0-.15-.234.453.453 0 0 0-.276-.087.458.458 0 0 0-.358.156.6.6 0 0 0-.135.405c0 .169.045.307.135.412.09.105.21.156.358.156a.446.446 0 0 0 .282-.087.406.406 0 0 0 .147-.24h.246a.664.664 0 0 1-.225.402Zm.604-1.051a.704.704 0 0 1 .637-.373c.138 0 .264.03.373.088.108.06.192.144.255.252.06.111.093.24.1.387 0 .024-.004.057-.007.106h-1.19v.021a.5.5 0 0 0 .139.36c.087.09.2.135.345.135a.48.48 0 0 0 .28-.081.397.397 0 0 0 .156-.231h.249a.64.64 0 0 1-.225.384.671.671 0 0 1-.442.148.77.77 0 0 1-.4-.097.677.677 0 0 1-.267-.276.865.865 0 0 1-.093-.412.9.9 0 0 1 .09-.411Zm1.109.255a.437.437 0 0 0-.147-.303.479.479 0 0 0-.322-.108.457.457 0 0 0-.457.411h.926Zm1.605-.384h-.277v-.226h.277v-.429h.246v.429h.388v.226h-.388v.904c0 .066.012.111.036.138.024.027.07.039.132.039h.268v.226h-.283c-.144 0-.249-.031-.31-.097-.06-.063-.09-.165-.09-.303v-.907Zm1.218 1.225a.677.677 0 0 1-.267-.276.813.813 0 0 1-.096-.409c0-.153.03-.288.096-.408a.695.695 0 0 1 .267-.276.768.768 0 0 1 .397-.1c.147 0 .28.033.393.1a.724.724 0 0 1 .27.276c.064.12.097.255.097.408a.845.845 0 0 1-.096.409.703.703 0 0 1-.27.276.765.765 0 0 1-.394.1.768.768 0 0 1-.397-.1Zm.661-.192a.469.469 0 0 0 .18-.201.648.648 0 0 0 .064-.292.656.656 0 0 0-.064-.291.487.487 0 0 0-.444-.273.496.496 0 0 0-.267.072.48.48 0 0 0-.178.201.656.656 0 0 0-.063.291c0 .109.021.208.063.292.042.087.1.153.177.201a.496.496 0 0 0 .268.072c.099 0 .186-.024.264-.072Zm2.322-1.829v2.103h-.213l-.033-.247a.615.615 0 0 1-.525.265.747.747 0 0 1-.382-.094.631.631 0 0 1-.261-.27.877.877 0 0 1-.093-.421.86.86 0 0 1 .093-.408.718.718 0 0 1 .643-.376c.123 0 .228.024.318.07a.534.534 0 0 1 .207.183v-.805h.246Zm-.486 1.832a.479.479 0 0 0 .18-.198.648.648 0 0 0 .063-.292.67.67 0 0 0-.063-.294.477.477 0 0 0-.441-.276.471.471 0 0 0-.37.159.587.587 0 0 0-.138.405.59.59 0 0 0 .138.409.469.469 0 0 0 .37.156.487.487 0 0 0 .26-.069Zm2.345.045v.226h-.135c-.1 0-.168-.018-.21-.061-.042-.039-.066-.099-.066-.177a.59.59 0 0 1-.514.256.64.64 0 0 1-.412-.121.39.39 0 0 1-.153-.327c0-.153.051-.27.156-.355.106-.081.259-.123.46-.123h.45v-.105a.295.295 0 0 0-.102-.234.43.43 0 0 0-.279-.084.451.451 0 0 0-.264.072.285.285 0 0 0-.126.186h-.247a.488.488 0 0 1 .199-.351.736.736 0 0 1 .45-.127c.195 0 .346.048.454.145.108.096.162.231.162.408v.661c0 .075.033.111.102.111h.075Zm-.423-.474h-.475c-.228 0-.342.087-.342.255 0 .078.03.138.09.183.06.048.14.069.243.069a.51.51 0 0 0 .354-.117.41.41 0 0 0 .13-.315v-.075Zm.767-.833.472 1.25.456-1.25h.262l-.706 1.791c-.037.093-.07.162-.097.207a.263.263 0 0 1-.105.102.343.343 0 0 1-.168.033h-.294v-.225h.219a.259.259 0 0 0 .108-.015.11.11 0 0 0 .057-.048c.015-.024.033-.063.057-.117l.078-.183-.6-1.545h.26Zm1.578.905-.04-1.475h.265l-.036 1.475h-.19Zm-.03.357a.17.17 0 0 1 .123-.048.18.18 0 0 1 .123.048c.03.03.048.072.048.12a.17.17 0 0 1-.048.123.174.174 0 0 1-.123.046.165.165 0 0 1-.124-.046.158.158 0 0 1-.048-.123c0-.048.015-.09.048-.12Zm.87-.357-.038-1.475h.264l-.036 1.475h-.19Zm-.03.357a.17.17 0 0 1 .124-.048.18.18 0 0 1 .123.048c.03.03.048.072.048.12a.17.17 0 0 1-.048.123.175.175 0 0 1-.123.046.165.165 0 0 1-.123-.046.158.158 0 0 1-.048-.123c0-.048.015-.09.048-.12Zm.872-.357-.04-1.475h.265l-.036 1.475h-.19Zm-.03.357a.17.17 0 0 1 .123-.048.18.18 0 0 1 .123.048c.03.03.048.072.048.12a.17.17 0 0 1-.048.123.174.174 0 0 1-.123.046.165.165 0 0 1-.123-.046.158.158 0 0 1-.048-.123c0-.048.015-.09.048-.12Z"/><rect width="18.656" height="7.253" x="90.359" y="91.669" stroke="#fff" stroke-width=".15" rx=".826"/><path fill="#E86317" d="M93.402 96.796a305.013 305.013 0 0 1 .012-.904l.003-.376v-.261a.482.482 0 0 0-.01-.108.066.066 0 0 0-.044-.054.163.163 0 0 0-.057-.013 1.166 1.166 0 0 0-.148-.005h-.084c-.038 0-.086 0-.144.002-.056 0-.125.002-.207.007v-.391h1.529v.39a4.173 4.173 0 0 0-.21-.005 4.332 4.332 0 0 0-.145-.004h-.08c-.073 0-.122.002-.148.007a.164.164 0 0 0-.057.012.073.073 0 0 0-.048.054.482.482 0 0 0-.009.108v.261l.003.376.006.444c.002.154.005.308.009.46h-.171Zm1.184 0a46.948 46.948 0 0 1 .009-.583l.003-.16V95.439l-.003-.16-.003-.23-.006-.355h.877a.71.71 0 0 1 .322.07.494.494 0 0 1 .219.21.7.7 0 0 1 .081.357.6.6 0 0 1-.09.34.518.518 0 0 1-.255.2c-.11.045-.245.067-.403.067.038.108.076.197.114.267a.668.668 0 0 0 .117.16c.04.037.082.063.127.077a.483.483 0 0 0 .14.021.738.738 0 0 0 .246-.045.431.431 0 0 0 .097-.048v.409a.45.45 0 0 1-.102.03.916.916 0 0 1-.165.012.54.54 0 0 1-.322-.096.785.785 0 0 1-.231-.295 2.424 2.424 0 0 1-.16-.492 3.77 3.77 0 0 0-.242.006.568.568 0 0 0-.127.015.121.121 0 0 0-.06.027.153.153 0 0 0-.033.075 1.342 1.342 0 0 0-.006.15l.003.16.006.219.01.207h-.163Zm.6-.992c.131 0 .231-.002.301-.008.072-.007.128-.015.168-.025a.486.486 0 0 0 .115-.054.324.324 0 0 0 .096-.105.35.35 0 0 0 .039-.174.333.333 0 0 0-.243-.333.518.518 0 0 0-.097-.018 1.923 1.923 0 0 0-.147-.01 7.22 7.22 0 0 0-.442 0 1.209 1.209 0 0 0-.12.01.261.261 0 0 0-.066.018.089.089 0 0 0-.039.042.256.256 0 0 0-.02.093 2.39 2.39 0 0 0-.007.198c0 .088.002.155.006.201a.255.255 0 0 0 .021.093c.01.019.023.031.04.04a.73.73 0 0 0 .065.017 1.982 1.982 0 0 0 .33.016Zm1.351.968v-.39a1.16 1.16 0 0 0 .469.1c.09-.001.168-.017.234-.047a.495.495 0 0 0 .168-.123.89.89 0 0 0 .19-.376h-.818l-.08-.327-.067-.28-.069-.287a80.969 80.969 0 0 1-.081-.349h.168l.063.364c.022.108.042.199.06.273.018.074.032.125.042.153.012.028.028.05.048.066.02.014.058.024.115.03.058.006.147.01.267.01.12 0 .208-.004.264-.01a.274.274 0 0 0 .117-.03.155.155 0 0 0 .052-.066c.01-.028.024-.079.042-.153a7.81 7.81 0 0 0 .126-.637h.168c-.024.106-.05.211-.075.315a32.95 32.95 0 0 0-.075.3 37.05 37.05 0 0 1-.117.512 2.626 2.626 0 0 0-.03.168 2.829 2.829 0 0 1-.082.3 1.16 1.16 0 0 1-.084.202.594.594 0 0 1-.394.306 1.245 1.245 0 0 1-.255.024 1.25 1.25 0 0 1-.222-.018 1.079 1.079 0 0 1-.144-.03Zm2.542.024a81.057 81.057 0 0 0 .015-.817V95.513a5.28 5.28 0 0 0-.003-.16l-.003-.254-.003-.406h.589a116.106 116.106 0 0 1 .258.943l.072.253.048.15.033.084.027.048a.145.145 0 0 0 .063.054.397.397 0 0 0 .111.012.49.49 0 0 0 .093-.006.08.08 0 0 0 .064-.066.372.372 0 0 0 .012-.09 16.037 16.037 0 0 0-.012-1.033l-.012-.349h.171a76.08 76.08 0 0 0-.012.66v.785a59.688 59.688 0 0 1 .009.658h-.472a69.59 69.59 0 0 0-.282-1.01 20.216 20.216 0 0 0-.078-.258 1.2 1.2 0 0 0-.081-.216.374.374 0 0 0-.03-.042.116.116 0 0 0-.073-.045.582.582 0 0 0-.138-.012.485.485 0 0 0-.132.012.073.073 0 0 0-.051.042.238.238 0 0 0-.021.05.407.407 0 0 0-.012.091V96.078l.006.342.015.376h-.171Zm2.833.039a.927.927 0 0 1-.481-.114.717.717 0 0 1-.285-.358 1.751 1.751 0 0 1-.094-.618c0-.253.033-.46.097-.62a.7.7 0 0 1 .285-.354.892.892 0 0 1 .478-.117c.19 0 .348.039.474.117a.682.682 0 0 1 .286.355c.064.16.096.366.096.618 0 .25-.032.457-.096.62a.698.698 0 0 1-.286.357.903.903 0 0 1-.474.114Zm0-.397a.97.97 0 0 0 .408-.075.5.5 0 0 0 .241-.228.832.832 0 0 0 .081-.39.832.832 0 0 0-.081-.391.5.5 0 0 0-.241-.228.97.97 0 0 0-.408-.076.993.993 0 0 0-.412.076.509.509 0 0 0-.243.228.859.859 0 0 0-.078.39c0 .159.026.289.078.391a.509.509 0 0 0 .243.228c.11.05.247.075.412.075Zm1.445.358a23.74 23.74 0 0 0-.06-.57 22.536 22.536 0 0 0-.099-.815c-.014-.108-.03-.22-.048-.337a15.436 15.436 0 0 0-.058-.381h.178l.045.472.042.396.033.3.027.202c.006.05.012.088.018.114a.275.275 0 0 0 .033.084.129.129 0 0 0 .066.033.92.92 0 0 0 .231-.003c.032-.006.055-.018.069-.036a.09.09 0 0 0 .024-.03 2.041 2.041 0 0 0 .046-.222c.012-.066.025-.155.039-.268l.051-.423.078-.619h.3l.075.619.054.423c.014.113.026.202.036.268.01.066.019.116.027.15a.489.489 0 0 0 .021.072l.022.03c.018.018.042.03.072.036a.877.877 0 0 0 .228.003.131.131 0 0 0 .069-.033.275.275 0 0 0 .033-.084 5.334 5.334 0 0 0 .045-.319l.033-.3.039-.393c.016-.147.032-.304.048-.472h.178l-.058.382-.048.336-.042.324-.06.49c-.018.168-.037.359-.057.57h-.595a64.478 64.478 0 0 0-.12-1.08 5.406 5.406 0 0 0-.039-.277.793.793 0 0 0-.033-.15c-.012-.032-.025-.052-.039-.06a.064.064 0 0 0-.042-.015.08.08 0 0 0-.048.015c-.012.008-.024.028-.036.06-.01.032-.021.082-.033.15-.012.068-.025.16-.039.276-.014.117-.03.263-.048.439l-.066.643h-.592Zm2.517-.574a45.332 45.332 0 0 0-.006-.225 6.026 6.026 0 0 0-.009-.198 41.43 41.43 0 0 1-.027-.448 90.181 90.181 0 0 0-.048-.706h.306a92.836 92.836 0 0 1-.048.706 19.288 19.288 0 0 0-.042.871h-.126Zm.063.604c-.142 0-.213-.064-.213-.192 0-.129.071-.193.213-.193.14 0 .21.064.21.193 0 .128-.07.192-.21.192Z"/><rect width="19.807" height="7.403" x="89.563" y="90.931" fill="#fff" rx=".901"/><path fill="#E86317" d="M92.032 93.03h1.665v.387h-.607v1.715h-.45v-1.715h-.608v-.388Zm2.826 0c.15 0 .286.03.403.087a.652.652 0 0 1 .273.243.72.72 0 0 1 .096.37.67.67 0 0 1-.096.357.644.644 0 0 1-.264.234l.415.811h-.5l-.35-.706h-.382v.706h-.45V93.03h.855Zm-.405 1.02h.37a.35.35 0 0 0 .252-.086.301.301 0 0 0 .096-.235c0-.099-.033-.177-.096-.237a.363.363 0 0 0-.253-.087h-.37v.646Zm1.24-1.02h.525l.471.862.496-.863h.502l-.772 1.322v.781h-.45v-.78l-.773-1.323Zm3.04 2.102V93.03h.408l.892 1.325V93.03h.445v2.103h-.412l-.892-1.325v1.325h-.441Zm4.032-.501a.983.983 0 0 1-.37.381 1.049 1.049 0 0 1-.541.138c-.204 0-.384-.045-.54-.138a.943.943 0 0 1-.37-.381 1.112 1.112 0 0 1-.132-.55c0-.201.042-.385.132-.547a.97.97 0 0 1 .37-.384c.156-.09.336-.139.54-.139.202 0 .382.049.541.139.156.093.28.222.37.384.087.162.132.346.132.547 0 .204-.045.387-.132.55Zm-1.421-.196a.57.57 0 0 0 .204.247c.087.06.189.087.306.087a.527.527 0 0 0 .304-.087.591.591 0 0 0 .204-.247.831.831 0 0 0 .072-.354.84.84 0 0 0-.072-.355.6.6 0 0 0-.204-.243.53.53 0 0 0-.304-.09.525.525 0 0 0-.306.09.578.578 0 0 0-.204.243.84.84 0 0 0-.072.355c0 .132.024.252.072.354Zm1.651-1.406.465-.003.388 1.538.411-1.535h.406l.399 1.535.397-1.535h.457l-.583 2.103h-.52l-.363-1.397-.355 1.397h-.52l-.582-2.103Zm3.287 1.451-.069-1.45h.453l-.063 1.45h-.321Zm-.024.24a.244.244 0 0 1 .18-.071.245.245 0 0 1 .255.252.245.245 0 0 1-.072.18.249.249 0 0 1-.183.07.242.242 0 0 1-.252-.25c0-.072.024-.132.072-.18Z"/><path fill="url(#m)" d="M114.366 75.484h33.323v44.712h-33.323z"/></g><rect width="2.403" height="1.502" x="94.066" y="111.572" fill="#C1C1C1" rx=".751"/><rect width="2.403" height="1.502" x="98.872" y="111.572" fill="#C1C1C1" rx=".751"/><rect width="4.506" height="1.502" x="103.679" y="111.572" fill="#E86317" rx=".751"/><path fill="#fff" d="M42.315.119h117.161V16.34H42.316z"/><path fill="#202020" d="M43.872 1.574a.357.357 0 0 0-.173.041.303.303 0 0 0-.16.275v.001c0 .057.012.107.037.152a.28.28 0 0 0 .256.145.287.287 0 0 0 .108-.019.24.24 0 0 0 .079-.05.216.216 0 0 0 .048-.065h.022v-.166h-.038v.001a.173.173 0 0 1-.088.153.186.186 0 0 1-.091.022.17.17 0 0 1-.177-.179.18.18 0 0 1 .178-.18.177.177 0 0 1 .155.09.185.185 0 0 1 .023.093l.028.15v.036a.574.574 0 0 1-.026.157.257.257 0 0 1-.069.113.163.163 0 0 1-.115.042.193.193 0 0 1-.071-.013.156.156 0 0 1-.088-.091l-.002-.006h-.158l.002.006a.29.29 0 0 0 .167.206c.044.02.094.03.15.03a.327.327 0 0 0 .319-.223.69.69 0 0 0 .043-.26.666.666 0 0 0-.028-.21.388.388 0 0 0-.08-.142.305.305 0 0 0-.114-.082.355.355 0 0 0-.137-.027Zm.642.8a.096.096 0 0 0 .1-.097.095.095 0 0 0-.029-.07.095.095 0 0 0-.07-.029.096.096 0 0 0-.1.099.096.096 0 0 0 .1.098Zm0-.462a.096.096 0 0 0 .1-.097.095.095 0 0 0-.029-.07.095.095 0 0 0-.07-.029.096.096 0 0 0-.1.099.096.096 0 0 0 .1.097Zm.72.584h.153v-.173h.121V2.19h-.121v-.594h-.227a5.864 5.864 0 0 0-.148.232 29.513 29.513 0 0 0-.148.242l-.07.122v.131h.44v.173Zm-.291-.302v-.01a4.681 4.681 0 0 1 .11-.186 7.325 7.325 0 0 1 .174-.273h.009v.469h-.293Zm.937.302h.16v-.9h-.16l-.235.166v.15l.224-.157h.011v.74Z"/><rect width="7.21" height="3.605" x="144.305" y="7.179" stroke="#202020" stroke-width=".3" opacity=".35" rx="1.142"/><path fill="#202020" d="M151.966 8.465v1.224a.664.664 0 0 0 .399-.612.664.664 0 0 0-.399-.612" opacity=".4"/><rect width="6.309" height="2.704" x="144.756" y="7.629" fill="#202020" rx=".751"/><path fill="#202020" fill-rule="evenodd" d="M139.43 7.961a2.97 2.97 0 0 1 2.007.774.106.106 0 0 0 .146-.001l.39-.38a.1.1 0 0 0 .031-.074.1.1 0 0 0-.032-.074c-1.421-1.314-3.663-1.314-5.085 0a.104.104 0 0 0-.032.074c0 .028.011.054.031.074l.39.38c.04.039.106.04.146 0a2.974 2.974 0 0 1 2.008-.773Zm-.001 1.268c.408 0 .801.154 1.103.431.041.04.105.039.145-.002l.387-.396a.113.113 0 0 0 .031-.078.108.108 0 0 0-.033-.078 2.373 2.373 0 0 0-3.266 0 .11.11 0 0 0-.001.156l.386.396c.04.04.104.042.145.002a1.63 1.63 0 0 1 1.103-.431Zm.758.84a.117.117 0 0 1-.031.083l-.654.738a.096.096 0 0 1-.072.034.098.098 0 0 1-.073-.034l-.654-.738a.12.12 0 0 1-.03-.084c0-.031.012-.061.033-.083a1.032 1.032 0 0 1 1.447 0 .119.119 0 0 1 .034.083ZM134.602 7.533c0-.19-.143-.344-.32-.344h-.321c-.177 0-.32.154-.32.344v2.985c0 .19.143.344.32.344h.321c.177 0 .32-.154.32-.344V7.533Zm-2.233.39h.32c.177 0 .321.158.321.353v2.233c0 .195-.144.353-.321.353h-.32c-.177 0-.321-.158-.321-.353V8.276c0-.195.144-.352.321-.352Zm-1.302.796h-.32c-.177 0-.32.16-.32.357v1.429c0 .197.143.357.32.357h.32c.177 0 .321-.16.321-.357V9.076c0-.197-.144-.357-.321-.357Zm-1.592.735h-.32c-.177 0-.321.158-.321.352v.704c0 .194.144.352.321.352h.32c.177 0 .32-.158.32-.352v-.704c0-.194-.143-.352-.32-.352Z" clip-rule="evenodd"/></g><rect width="118.412" height="256.255" x="41.746" y=".119" stroke="#E86317" stroke-width=".777" rx="9.111"/></g><defs><clipPath id="b"><rect width="118.412" height="256.255" x="41.746" y=".119" fill="#fff" rx="9.111"/></clipPath><clipPath id="c"><rect width="14.42" height="14.42" x="48.956" y="24.393" fill="#fff" rx="7.21"/></clipPath><clipPath id="e"><rect width="102.741" height="25.535" x="48.956" y="46.382" fill="#fff" rx="1.502"/></clipPath><clipPath id="h"><path fill="#fff" d="M56.166 51.189h33v16.21h-33z"/></clipPath><clipPath id="i"><path fill="#fff" d="M41.746 134.704h109.951v9.605H41.746z"/></clipPath><clipPath id="j"><rect width="102.741" height="30.041" x="49.755" y="79.127" fill="#fff" rx="1.502"/></clipPath><radialGradient id="f" cx="0" cy="0" r="1" gradientTransform="rotate(-60.896 107.082 -46.087) scale(7.5353 44.913)" gradientUnits="userSpaceOnUse"><stop stop-color="#75BBFC"/><stop offset="1" stop-color="#75BBFC" stop-opacity="0"/></radialGradient><radialGradient id="g" cx="0" cy="0" r="1" gradientTransform="rotate(-61.83 121.44 -104.872) scale(17.2978 100.963)" gradientUnits="userSpaceOnUse"><stop stop-color="#75BBFC"/><stop offset="1" stop-color="#75BBFC" stop-opacity="0"/></radialGradient><radialGradient id="k" cx="0" cy="0" r="1" gradientTransform="rotate(-64.678 132.364 -22.474) scale(8.56912 46.4641)" gradientUnits="userSpaceOnUse"><stop stop-color="#B875FC"/><stop offset="1" stop-color="#75BBFC" stop-opacity="0"/></radialGradient><radialGradient id="l" cx="0" cy="0" r="1" gradientTransform="rotate(-65.525 145.01 -79.575) scale(19.711 104.238)" gradientUnits="userSpaceOnUse"><stop stop-color="#ECA0FF"/><stop offset="1" stop-color="#75BBFC" stop-opacity="0"/></radialGradient><pattern id="d" width="1" height="1" patternContentUnits="objectBoundingBox"><use xlink:href="#n" transform="scale(.00037 .00024)"/></pattern><pattern id="m" width="1" height="1" patternContentUnits="objectBoundingBox"><use xlink:href="#o" transform="matrix(.00335 0 0 .0025 -.568 0)"/></pattern><filter id="a" width="200" height="337.843" x=".952" y="-25.135" color-interpolation-filters="sRGB" filterUnits="userSpaceOnUse"><feFlood flood-opacity="0" result="BackgroundImageFix"/><feColorMatrix in="SourceAlpha" result="hardAlpha" values="0 0 0 0 0 0 0 0 0 0 0 0 0 0 0 0 0 0 127 0"/><feMorphology in="SourceAlpha" operator="dilate" radius="9.324" result="effect1_dropShadow_3204_10970"/><feOffset dy="15.54"/><feGaussianBlur stdDeviation="15.54"/><feComposite in2="hardAlpha" operator="out"/><feColorMatrix values="0 0 0 0 0.803922 0 0 0 0 0.803922 0 0 0 0 0.803922 0 0 0 0.5 0"/><feBlend in2="BackgroundImageFix" mode="multiply" result="effect1_dropShadow_3204_10970"/><feBlend in="SourceGraphic" in2="effect1_dropShadow_3204_10970" result="shape"/></filter></defs></svg>