<svg width="68" height="51" viewBox="0 0 68 51" fill="none" xmlns="http://www.w3.org/2000/svg">
<path opacity="0.5" d="M4.75109 44.0961C1.48472 40.0873 0 34.7424 0 28.2096C0 19.0044 2.67249 12.0262 8.31441 7.27511C13.9563 2.52402 21.5284 0 31.3275 0V12.917C26.5764 12.917 23.0131 13.8079 20.3406 15.441C17.6681 17.0742 16.4804 19.3013 16.4804 21.9738C16.4804 23.0131 16.4804 23.7555 16.6288 24.2009C18.262 23.607 19.7467 23.31 21.2314 23.31C24.3493 23.31 27.0218 24.4978 29.1004 26.7249C31.179 28.952 32.3668 32.0699 32.3668 36.2271C32.3668 40.0873 30.8821 43.3537 27.9127 46.0262C24.9432 48.6987 21.5284 50.0349 17.5197 50.0349C12.1747 50.0349 8.01747 48.1048 4.75109 44.0961ZM40.3843 44.0961C37.1179 40.0873 35.6332 34.7424 35.6332 28.2096C35.6332 19.0044 38.3057 12.0262 43.9476 7.27511C49.5895 2.52402 57.1616 0 66.9607 0V12.917C62.2096 12.917 58.6463 13.8079 55.9738 15.441C53.3013 17.0742 52.1135 19.3013 52.1135 21.9738C52.1135 23.0131 52.1135 23.7555 52.262 24.2009C53.8952 23.607 55.3799 23.31 56.8646 23.31C59.9825 23.31 62.655 24.4978 64.7336 26.7249C66.8122 28.952 68 32.0699 68 36.2271C68 40.0873 66.5153 43.3537 63.5459 46.0262C60.5764 48.6987 57.1616 50.0349 53.1528 50.0349C47.8079 50.0349 43.6507 48.1048 40.3843 44.0961Z" fill="white"/>
</svg>
